<?xml version="1.0" standalone="no"?>
<!DOCTYPE svg PUBLIC "-//W3C//DTD SVG 1.1//EN" "http://www.w3.org/Graphics/SVG/1.1/DTD/svg11.dtd" >
<svg xmlns="http://www.w3.org/2000/svg">
<metadata>
This is a custom SVG webfont generated by Font Squirrel.
Copyright   : Copyright c 1985 1987 1990 1994 Adobe Systems Incorporated  All Rights ReservedITC New Baskerville is a registered trademark of International Typeface Corporation
Foundry     : Adobe Systems Incorporated
</metadata>
<defs>
<font id="ITCNewBaskervilleRoman" horiz-adv-x="1064" >
<font-face units-per-em="2048" ascent="1638" descent="-410" />
<missing-glyph horiz-adv-x="532" />
<glyph unicode=" "  horiz-adv-x="532" />
<glyph unicode="&#x09;" horiz-adv-x="532" />
<glyph unicode="&#xa0;" horiz-adv-x="532" />
<glyph unicode="!" horiz-adv-x="655" d="M211 88q0 47 31.5 83t79.5 36q49 0 85.5 -32t36.5 -81t-33.5 -85t-82.5 -36q-47 0 -82 34t-35 81zM215 1241q0 53 29.5 94t81.5 41q55 0 82.5 -43t27.5 -100q0 -74 -30 -213q-61 -305 -56 -698h-49q10 387 -53 698q-33 141 -33 221z" />
<glyph unicode="&#x22;" horiz-adv-x="778" d="M115 1307q-6 33 22.5 61.5t65.5 28.5t65.5 -29t22.5 -61l-68 -402h-41zM485 1307q-6 33 23 61.5t65.5 28.5t65.5 -29t23 -61l-68 -402h-41z" />
<glyph unicode="#" d="M4 457l14 94h256l43 301h-258l15 94h260l63 438h115l-63 -438h256l61 438h115l-62 -438h242l-14 -94h-244l-41 -301h248l-15 -94h-252l-63 -457h-115l64 457h-258l-68 -457h-115l68 457h-252zM389 551h258l41 301h-256z" />
<glyph unicode="$" d="M68 186q0 41 25.5 67t64.5 26q82 0 82 -93l-2 -34q0 -111 163 -127v657q-129 47 -214 131t-85 205q0 127 85 216t214 118v168h58v-156q57 4 86 4q27 0 76 -4v156h57v-154q90 -6 184 -65.5t94 -141.5q0 -41 -23.5 -66.5t-64.5 -25.5q-33 0 -55 23.5t-22 58.5q0 14 4 38.5 t4 37.5q0 68 -121 92v-547q78 -43 123 -72.5t97 -79t75.5 -109.5t23.5 -138q0 -139 -90 -238.5t-229 -142.5v-293h-57v285q-10 0 -29 -2.5t-34 -3.5t-30 -1q-25 0 -69 5v-283h-58v283q-68 4 -138 23.5t-132.5 68t-62.5 114.5zM236 1092q0 -127 165 -205v416 q-165 -68 -165 -211zM459 25q6 0 26.5 -2.5t30.5 0.5q35 2 105 10v549l-162 73v-630zM459 862l162 -65v522q-27 2 -78 2q-55 0 -84 -2v-457zM678 47q82 29 131 99.5t49 160.5q0 76 -47 130.5t-133 111.5v-502z" />
<glyph unicode="%" horiz-adv-x="1843" d="M182 967q0 170 122 321.5t288 151.5q96 0 196.5 -71t206.5 -71q201 0 377 199h68l-979 -1647h-84l866 1463l-4 4q-133 -74 -240 -74q-63 0 -159 31q23 -61 22 -141q0 -168 -104.5 -329t-261.5 -161q-139 0 -226.5 92.5t-87.5 231.5zM336 897q0 -78 42 -138.5t118 -60.5 q94 0 166.5 84t103.5 186.5t31 192.5q0 88 -41 155.5t-123 67.5q-86 0 -158 -92t-105.5 -201.5t-33.5 -193.5zM975 215q0 178 122 329.5t296 151.5q125 0 195.5 -83t70.5 -210q0 -113 -41 -224t-130 -194t-204 -83q-135 0 -222 89t-87 224zM1128 156q0 -80 43 -139.5 t119 -59.5q92 0 165 83t105.5 186.5t32.5 191.5t-45 155.5t-129 67.5t-153.5 -93t-103.5 -202.5t-34 -189.5z" />
<glyph unicode="&#x26;" horiz-adv-x="1515" d="M94 223q0 98 55.5 183.5t119 132.5t163.5 106q-143 201 -143 393q0 139 90 238.5t227 99.5q123 0 201 -73.5t78 -194.5q0 -207 -275 -393l293 -348l107 178q37 68 53 94.5t55 78.5t82 73.5t96 21.5q59 0 103.5 -40t44.5 -97q0 -43 -32 -78t-75 -35t-67.5 27.5t-24.5 71.5 q0 2 1 12t0 17t-2 15.5t-6 12.5t-13 4q-61 0 -154 -184l-108 -187l-19 -28l36 -36q32 -32 46 -45.5t45 -43t52.5 -44t50 -33t54 -26.5t50.5 -8q80 0 168 100l35 -32q-137 -176 -310 -176q-72 0 -140 31.5t-108 64.5t-108 96q-178 -199 -424 -199q-115 0 -206 69.5t-91 180.5 zM279 317q0 -102 64.5 -175.5t164.5 -73.5q137 0 268 143l-10 10l-307 381q-6 -6 -38 -33.5t-40 -36t-30.5 -33t-31 -39t-20.5 -39t-16 -50t-4 -54.5zM412 1128q0 -147 166 -370q82 55 129 143t47 189q0 92 -41 161.5t-129 69.5q-84 0 -128 -55.5t-44 -137.5z" />
<glyph unicode="'" horiz-adv-x="450" d="M137 1307q-6 33 22.5 61.5t65.5 28.5t65.5 -29t22.5 -61l-67 -402h-41z" />
<glyph unicode="(" horiz-adv-x="901" d="M289 508q0 479 409 889l45 -39q-172 -233 -234.5 -401.5t-62.5 -440.5q0 -535 312 -872l-45 -41q-424 418 -424 905z" />
<glyph unicode=")" horiz-adv-x="901" d="M143 1358l43 39q424 -408 424 -903q0 -76 -9 -148t-18.5 -122t-40 -116.5t-45 -98.5t-63.5 -102.5t-65.5 -92t-82 -105.5t-83.5 -106l-45 41q168 223 231.5 397t63.5 444q-1 533 -310 873z" />
<glyph unicode="*" horiz-adv-x="1024" d="M125 776q0 68 86 88q31 6 55.5 9.5t34.5 3.5t29.5 7t48.5 21q78 41 78 51.5t-78 49.5q-29 16 -98.5 26t-112.5 31.5t-43 71.5q0 31 24.5 54t55.5 23q39 0 67.5 -31.5t66.5 -80.5t85 -76q53 -27 57 -27q10 0 11 62q0 80 -29 147.5t-29 93.5q0 35 22.5 59.5t55.5 24.5 t55.5 -24.5t22.5 -59.5q0 -29 -29 -98t-29 -131q0 -74 10.5 -74t67.5 33q45 25 80 72t62.5 78.5t66.5 31.5q31 0 55.5 -22.5t24.5 -52.5q0 -51 -38 -70.5t-111.5 -32t-118.5 -37.5q-63 -31 -64 -41q0 -8 74 -49q39 -23 110.5 -34t109.5 -29.5t38 -67.5q0 -31 -24.5 -54.5 t-55.5 -23.5q-39 0 -66.5 32t-65.5 80t-87 75q-47 29 -57 28q-16 0 -11 -82q2 -63 29 -123.5t29 -93.5q-2 -37 -21.5 -62.5t-56.5 -25.5q-33 0 -55.5 26t-22.5 58q0 31 29 100.5t29 129.5q0 74 -11 73q-14 0 -45 -20q-57 -31 -97 -81t-67.5 -82t-66.5 -32q-31 0 -55.5 23.5 t-24.5 54.5z" />
<glyph unicode="+" d="M68 473v94h417v467h95v-467h417v-94h-417v-473h-95v473h-417z" />
<glyph unicode="," horiz-adv-x="532" d="M123 -276q59 43 99 76.5t75 94t27 119.5q-33 -23 -64 -22q-47 0 -77.5 29.5t-30.5 76.5t32.5 79t79.5 32q68 0 108 -52.5t40 -123.5q0 -31 -4.5 -58.5t-14.5 -52t-18 -43t-28.5 -40t-31 -33t-39 -33t-39 -28.5t-46 -30.5t-46.5 -29.5z" />
<glyph unicode="-" horiz-adv-x="491" d="M0 391v137h494v-137h-494z" />
<glyph unicode="." horiz-adv-x="532" d="M150 88q0 47 31.5 83t78.5 36q49 0 86 -32t37 -81t-34 -85t-83 -36q-47 0 -81.5 34t-34.5 81z" />
<glyph unicode="/" horiz-adv-x="1187" d="M76 -276l897 1673h92l-903 -1673h-86z" />
<glyph unicode="0" d="M78 657q0 102 27.5 220t80 233t145.5 190.5t210 75.5q113 0 203 -70.5t141 -179t76.5 -222t25.5 -216.5q0 -106 -26.5 -225t-80 -231.5t-148.5 -185.5t-216 -73q-109 0 -197 73t-138 182.5t-76.5 222t-26.5 206.5zM283 547q0 -20 2 -87t8 -102.5t16 -96t27.5 -95.5 t41 -73t59.5 -55.5t79 -17.5q190 0 238 322l28 401q0 586 -233 586q-182 0 -236 -301l-30 -407v-74z" />
<glyph unicode="1" d="M184 1251v41q104 6 163 13.5t138.5 30t151.5 61.5v-1094q0 -143 14 -199q6 -18 21.5 -31.5t40 -18.5t44 -7t50.5 -3t39 -1v-47q-51 0 -153.5 4t-154 4t-155.5 -4t-158 -4v47q2 0 38 1t53.5 2t48 6t48 15.5t23.5 24.5q18 41 19 211v729q0 143 -23 182q-20 37 -129 37h-119 z" />
<glyph unicode="2" d="M90 0q90 170 311 395l37 37q82 82 124 127t97.5 122t79 155.5t23.5 169.5q0 135 -68.5 229t-197.5 94q-106 0 -179 -65.5t-73 -171.5q0 -80 51 -142.5t129 -62.5q59 0 115 59q-8 -68 -66.5 -110.5t-130.5 -42.5q-109 0 -172.5 71.5t-63.5 182.5q0 156 126 242.5t288 86.5 q186 0 316.5 -100t130.5 -283q0 -70 -21.5 -132t-46.5 -104t-80 -95.5t-87 -78t-103 -79.5q-246 -186 -350 -330h665l-57 -289h-45l4 74q4 29 -7.5 35t-39.5 6h-13h-591h-105z" />
<glyph unicode="3" d="M102 170q0 33 27 56.5t61 23.5q45 0 69 -23.5t35 -57.5t25.5 -67.5t55.5 -57.5t110 -24q156 0 223.5 106.5t67.5 268.5q0 313 -217 314q-63 0 -102 -37t-67 -74t-62 -37q-16 0 -27.5 10.5t-11.5 26.5t14 33.5t29.5 29t40 24.5t30.5 17q98 59 150.5 100.5t97.5 118t45 175 t-47 157t-147 58.5q-90 0 -153.5 -50.5t-63.5 -136.5q0 -57 34.5 -100t90.5 -43q57 0 120 49q-20 -63 -71 -97t-121 -34q-76 0 -128 48t-52 124q0 139 125 222t272 83q135 0 236.5 -66.5t101.5 -195.5q0 -68 -28.5 -125t-85 -101t-103.5 -72t-119 -60l4 -4q10 2 31.5 2 t32.5 2q154 0 255 -82t101 -234q0 -205 -166 -336t-379 -131q-70 0 -140.5 16.5t-132 63.5t-61.5 117z" />
<glyph unicode="4" d="M76 438v72l672 874h49v-872h237v-74h-237v-133q0 -145 16 -201q8 -27 33.5 -40t48.5 -16t63.5 -4t49.5 -1v-47q-51 2 -147.5 5t-141.5 3q-51 0 -155.5 -4t-157.5 -4v47q158 8 180 35q37 41 37 227v133h-547zM154 512h469v612h-5z" />
<glyph unicode="5" d="M78 166q0 37 24.5 61.5t61.5 24.5q41 0 62.5 -23.5t31.5 -58.5t24.5 -68.5t53.5 -57.5t102 -24q92 0 156.5 40t98.5 109t48.5 142.5t14.5 161.5q0 322 -240 322q-74 0 -157 -47.5t-83 -114.5q0 -6 2.5 -23.5t2.5 -31t-2.5 -30t-11.5 -24.5t-25 -8q-51 0 -52 57l31 824 q125 -121 307 -121q100 0 169 31.5t147 109.5q-20 -147 -128 -228t-261 -81q-86 0 -193 27l-8 -416l4 -4q51 72 137 108.5t180 36.5q170 0 278 -104.5t108 -272.5q0 -225 -163 -367.5t-392 -142.5q-111 0 -219.5 48.5t-108.5 144.5z" />
<glyph unicode="6" d="M100 590q0 104 16.5 208.5t56.5 210t100.5 186.5t155.5 131t214 50q90 0 177 -40t87 -119q0 -37 -24.5 -63t-61.5 -26q-43 0 -69.5 30t-40 67t-45 66.5t-83 29.5t-92 -20.5t-68.5 -48t-48.5 -80t-31.5 -90.5t-19.5 -105.5t-10.5 -99t-5 -98t-3 -79.5l4 -4q63 88 134 133 t171 45q178 0 289 -125.5t111 -304.5q0 -190 -130 -330.5t-321 -140.5q-121 0 -213 56.5t-145 148.5t-79 196.5t-26 215.5zM305 494q0 -473 258 -474q80 0 132.5 37t75 103.5t30.5 127t8 138.5q0 61 -3 104t-15.5 100.5t-36 92.5t-68.5 60.5t-108 25.5q-152 0 -273 -195 v-120z" />
<glyph unicode="7" d="M115 942l118 561h54l-4 -20q-12 -68 -13 -84q0 -14 3 -24.5t10.5 -16.5t13.5 -9t21.5 -4.5t24.5 -1.5h32h35h604v-34q-266 -514 -393 -1080q-2 -8 -8.5 -38.5t-10.5 -48t-13 -47t-19.5 -47t-25 -37t-33.5 -29t-42 -9.5q-41 0 -69.5 30t-28.5 71q0 113 278 635l244 460 h-453q-141 0 -179 -19.5t-75 -137.5l-22 -70h-49z" />
<glyph unicode="8" d="M84 309q0 236 295 379q-248 129 -248 338q0 143 115 252q111 98 284 98q156 0 265 -73q135 -92 135 -236q0 -109 -58.5 -181.5t-166.5 -135.5q276 -139 276 -379q0 -178 -133 -288t-318 -110q-168 0 -307 89t-139 247zM236 319q0 -143 82.5 -221t228.5 -78q123 0 211 77 t88 198q0 59 -20.5 105t-66.5 83t-78 55.5t-99 51.5l-156 76q-190 -101 -190 -347zM262 1102q0 -53 20.5 -95t67.5 -76t78 -51.5t94 -45.5l140 -66q129 129 129 270q0 127 -71 209t-196 82q-109 0 -185.5 -60.5t-76.5 -166.5z" />
<glyph unicode="9" d="M59 905q0 190 131.5 330.5t321.5 140.5q121 0 213 -56t145.5 -148.5t79 -197t25.5 -214.5q0 -133 -28.5 -263t-88 -252t-170 -197t-256.5 -75q-90 0 -177 40t-87 120q0 37 24.5 62.5t61.5 25.5q41 0 68.5 -29.5t40 -66.5t45 -66.5t84.5 -29.5q57 0 102 22.5t73.5 70.5 t47 90t29 118t14.5 114.5t8 116.5t4 92h-4q-129 -176 -305 -176q-178 0 -290 125t-112 303zM264 923.5q0 -77.5 6 -132t26.5 -118t71 -97t128.5 -33.5q156 0 274 192v119q0 475 -258 475q-80 0 -133 -37t-75.5 -103.5t-31 -127t-8.5 -138z" />
<glyph unicode=":" horiz-adv-x="532" d="M150 88q0 47 31.5 83t78.5 36q49 0 86 -32t37 -81t-34 -85t-83 -36q-47 0 -81.5 34t-34.5 81zM150 776q0 47 31.5 83t78.5 36q49 0 86 -32t37 -81t-34 -84.5t-83 -35.5q-47 0 -81.5 33.5t-34.5 80.5z" />
<glyph unicode=";" horiz-adv-x="532" d="M123 -283q59 43 99 77t75 94.5t27 119.5q-33 -23 -64 -22q-47 0 -77.5 29.5t-30.5 76.5t32.5 79t79.5 32q68 0 108 -52.5t40 -123.5q0 -31 -4.5 -58.5t-14.5 -52.5t-18 -43t-28.5 -39.5t-31 -33t-39 -33t-39 -28.5t-46 -30.5t-46.5 -30.5zM154 776q0 47 31.5 83t78.5 36 q49 0 86 -32t37 -81t-34 -84.5t-83 -35.5q-47 0 -81.5 33.5t-34.5 80.5z" />
<glyph unicode="&#x37e;" horiz-adv-x="532" d="M123 -283q59 43 99 77t75 94.5t27 119.5q-33 -23 -64 -22q-47 0 -77.5 29.5t-30.5 76.5t32.5 79t79.5 32q68 0 108 -52.5t40 -123.5q0 -31 -4.5 -58.5t-14.5 -52.5t-18 -43t-28.5 -39.5t-31 -33t-39 -33t-39 -28.5t-46 -30.5t-46.5 -30.5zM154 776q0 47 31.5 83t78.5 36 q49 0 86 -32t37 -81t-34 -84.5t-83 -35.5q-47 0 -81.5 33.5t-34.5 80.5z" />
<glyph unicode="&#x3c;" d="M63 434v131l938 475v-108l-851 -432l851 -437v-104z" />
<glyph unicode="=" d="M68 301v94h929v-94h-929zM68 641v94h929v-94h-929z" />
<glyph unicode="&#x3e;" d="M63 -41v104l852 437l-852 432v108l938 -475v-131z" />
<glyph unicode="?" horiz-adv-x="819" d="M96 1284q0 45 35 68.5t82 23.5q190 0 335.5 -153.5t145.5 -345.5q0 -178 -113.5 -259t-297.5 -81v-207h-56v383h125q276 0 277 223q0 113 -68.5 201t-179.5 88q-31 0 -91.5 -11.5t-88.5 -11.5q-41 0 -73 21.5t-32 60.5zM150 88q0 47 31.5 83t78.5 36q49 0 86 -32t37 -81 t-34 -85t-83 -36q-47 0 -81.5 34t-34.5 81z" />
<glyph unicode="@" horiz-adv-x="1679" d="M123 676q0 285 218 492.5t525 207.5q285 0 487.5 -163.5t202.5 -424.5q0 -197 -141 -362q-66 -76 -159 -122t-193 -46q-59 0 -109.5 27.5t-58.5 79.5q-115 -106 -248 -107q-113 0 -179.5 78t-66.5 184q0 125 55.5 253t167 220t250.5 92q70 0 129.5 -28.5t75.5 -85.5h4 l25 86h174l-192 -518q-51 -131 -52 -177q0 -43 52 -43q55 0 122.5 30t112.5 69q166 139 166 375q0 205 -170 361.5t-444 156.5q-272 0 -450.5 -183.5t-178.5 -443.5q0 -268 174 -456.5t450 -188.5q193 0 350.5 91t245.5 241h68q-76 -180 -263.5 -289t-402.5 -109 q-313 0 -530 206t-217 497zM561 426q0 -49 32 -81t85 -32q152 0 244 246l102 279q16 41 16 59q0 55 -31.5 94t-90.5 39q-98 0 -185.5 -119.5t-129.5 -257t-42 -227.5z" />
<glyph unicode="A" horiz-adv-x="1351" d="M-47 -4v47q84 10 125 40t72 105q29 66 85 196t84 196l314 804h69l414 -1040q6 -12 28.5 -66.5t42 -96.5t36.5 -62q45 -61 176 -76v-47q-47 0 -145.5 4t-145.5 4q-49 0 -148.5 -4t-148.5 -4v47h18q14 0 20.5 1t21 2t21.5 2t19.5 4t18.5 7l15 11q9 6 13.5 13t7.5 16.5 t3 21.5q0 55 -41 160l-80 211h-506l-18 -52q-4 -8 -21.5 -52t-27 -69.5t-23.5 -64.5t-20.5 -69.5t-6.5 -53.5q0 -20 9.5 -36.5t19.5 -25t31.5 -13.5t34 -7t39 -4t32.5 -2v-47q-39 0 -112.5 4t-112.5 4q-35 0 -106.5 -4t-106.5 -4zM369 557h452l-225 578z" />
<glyph unicode="B" horiz-adv-x="1310" d="M57 -4v47q37 0 54.5 1t47 6t47 21.5t25.5 41.5q18 55 19 272v578q0 217 -19 272q-8 25 -25.5 41t-47 21.5t-47 6.5t-54.5 1v47q49 0 146.5 -4.5t146.5 -4.5q41 0 122 4.5t122 4.5h25q76 0 146 -11q81 -12 160 -44.5t126 -101.5t47 -165q0 -221 -307 -313v-4 q205 -18 299 -84q158 -106 157 -283q0 -190 -198 -297q-51 -27 -128 -39t-115 -13t-134 -1q-45 0 -134 4t-135 4q-57 0 -173 -4t-173 -4zM461 395q0 -197 24 -258q12 -31 35 -50t58.5 -26.5t57 -8.5t64.5 -1q291 0 291 314q0 193 -147 272q-20 10 -41 17.5t-47.5 12.5t-43 8 t-50 4t-44.5 1h-50h-44h-63v-285zM461 735h65h26h27h24q19 0 25.5 1t23 3t24.5 4t22.5 5.5t24.5 7.5t22 10l25 12q104 68 104 242q0 272 -280 272q-109 0 -121 -10t-12 -86v-461z" />
<glyph unicode="C" horiz-adv-x="1392" d="M96 659.5q0 311.5 203 514t514 202.5q123 0 214 -28.5t202 -98.5l33 97h30l17 -404h-47q-27 174 -142.5 280.5t-290.5 106.5q-131 0 -228 -60.5t-148.5 -160.5t-76 -212t-24.5 -237q0 -123 25.5 -231.5t79 -202.5t149.5 -149.5t228 -55.5q104 0 182 34t129 100.5 t84 140.5t57 176h37v-448h-27l-49 104q-195 -154 -452 -154q-313 0 -506 187.5t-193 499z" />
<glyph unicode="D" horiz-adv-x="1515" d="M57 -4v47q45 0 72 2t59.5 18.5t42.5 49.5q18 55 19 272v573q0 217 -19 273q-8 25 -25.5 41t-47 21t-47 6t-54.5 1v52q41 0 128 -3t130 -6q55 0 166 4.5t166 4.5h20q316 0 525 -187q215 -193 215 -520q0 -319 -192 -488q-183 -161 -485 -161h-30q-61 0 -182 4t-182 4 q-47 -2 -140.5 -5t-138.5 -3zM460 261q1 -13 4 -44t10 -51.5t20 -36.5q53 -78 229 -78q129 0 217 43t132 126t61.5 175t17.5 217q0 332 -123 508t-432 176q-109 0 -123 -14q-12 -12 -12 -63v-863q0 -2 -1 -42q-1 -20 -1 -33t1 -20z" />
<glyph unicode="E" horiz-adv-x="1269" d="M53 0v47q45 0 72 2t59.5 18.5t44.5 49.5q20 55 21 272v565q0 217 -21 273q-18 45 -62 57t-114 12v56h1018v-310h-47q-14 88 -40 140.5t-77 77t-101 30.5t-144 6h-148q-47 0 -51 -8q-2 -4 -2 -76v-485q22 -1 42 -1q158 0 216 57q66 65 76 196h47q-4 -188 -8 -279 q4 -82 8 -254h-47q-20 150 -92 188t-242 38v-336q0 -158 37 -207q56 -74 242 -74h20q92 2 147.5 11.5t109.5 36t82.5 83t39.5 144.5h47l-19 -330h-1114z" />
<glyph unicode="F" horiz-adv-x="1105" d="M39 -4v47q45 0 71.5 2t59.5 18.5t45 49.5q20 55 21 272v578q0 217 -21 272q-18 45 -62 57.5t-114 12.5v47q63 -2 185 -5.5t182 -3.5q111 0 329.5 4.5t327.5 4.5l33 -322h-47q-14 49 -20.5 67.5t-23 54.5t-39 56.5t-55.5 34.5q-84 37 -303 37q-127 0 -145 -10 q-16 -10 -17 -105v-458q22 -1 43 -1q157 0 216 55q66 62 75 193h47q-4 -188 -8 -278q4 -82 8 -254h-47q-8 63 -28.5 105t-43 64.5t-69.5 34t-84 13.5t-109 2v-258q0 -215 21 -270q8 -23 24.5 -38.5t41 -21.5t42 -8t50.5 -2h45v-47q-51 0 -157.5 4t-158 4t-156 -3t-159.5 -5z " />
<glyph unicode="G" horiz-adv-x="1515" d="M96 641q0 317 200 526t517 209q254 0 426 -129l43 92h23l-23 -405h-43q-10 176 -118.5 285.5t-282.5 109.5q-115 0 -203 -42t-140.5 -107.5t-86 -159.5t-45 -185.5t-11.5 -197.5q0 -121 24.5 -225.5t77 -192.5t146.5 -139t219 -51q160 0 251 76.5t91 230.5q0 98 -38 132 t-138 42v47h537v-47h-8q-71 0 -95 -35q-25 -37 -24 -121v-217q-29 0 -51.5 -1t-38 -2t-35 -6t-27.5 -7t-30.5 -12.5t-28.5 -13.5t-36 -20.5t-42 -23.5q-154 -78 -322 -78q-303 0 -495.5 183.5t-192.5 484.5z" />
<glyph unicode="H" horiz-adv-x="1679" d="M68 -4v47q45 0 71.5 2t59 18.5t45.5 49.5q20 55 20 272v578q0 217 -20 272q-18 45 -62.5 57.5t-113.5 12.5v47q47 0 145 -3t147 -6q53 0 155.5 4.5t156.5 4.5v-47q-45 0 -72 -2.5t-59.5 -18.5t-44.5 -49q-20 -55 -21 -272v-238h731v238q0 217 -20 272q-18 45 -62.5 57.5 t-113.5 12.5v47q51 0 149 -4.5t149.5 -4.5t153 4.5t152.5 4.5v-47q-45 0 -71.5 -2.5t-59.5 -18.5t-45 -49q-20 -55 -21 -272v-578q0 -217 21 -272q18 -45 62 -57.5t114 -12.5v-47q-49 0 -148.5 4t-148.5 4q-51 0 -153.5 -4t-153.5 -4v47q45 0 71.5 2t59.5 18.5t45 49.5 q20 55 20 272v274h-731v-274q0 -217 21 -272q18 -45 62 -57.5t114 -12.5v-47q-49 0 -148.5 4t-148.5 4q-51 -2 -154.5 -5t-152.5 -3z" />
<glyph unicode="I" horiz-adv-x="737" d="M68 -4v47q45 0 71.5 2t59 18.5t45.5 49.5q20 55 20 272v578q0 217 -20 272q-18 45 -62.5 57.5t-113.5 12.5v47q49 0 147 -4.5t147 -4.5q53 2 156 5.5t154 3.5v-47q-45 0 -72 -2.5t-59.5 -18.5t-44.5 -49q-20 -55 -21 -272v-578q0 -217 21 -272q18 -45 62 -57.5t114 -12.5 v-47q-47 0 -146.5 3t-148.5 5q-51 0 -154.5 -4t-154.5 -4z" />
<glyph unicode="J" horiz-adv-x="696" d="M-299 -389q0 35 24.5 57.5t59.5 22.5q63 0 102 -86q20 -53 50 -76t88 -23q170 0 206 172q12 57 13 134v1302q0 72 -21 121q-12 33 -46 49t-59.5 18.5t-70.5 2.5v47q49 0 147.5 -4.5t147.5 -4.5q51 0 153.5 3.5t155.5 5.5v-47q-145 0 -176 -70q-20 -45 -20 -227v-1096 q-8 -197 -70 -289q-109 -162 -362 -162q-47 0 -92.5 5.5t-102.5 18.5t-92 46t-35 80z" />
<glyph unicode="K" horiz-adv-x="1351" d="M53 -4v47q45 0 72 2t59.5 18.5t44.5 49.5q20 55 21 272v578q0 217 -21 272q-18 45 -62 57.5t-114 12.5v47q49 0 146.5 -4.5t146.5 -4.5q53 0 158.5 4.5t159.5 4.5v-47q-145 -12 -174 -44t-29 -178v-499q494 514 493 639q0 20 -8 35.5t-17 22.5t-28.5 12t-32 6t-36 3.5 t-31.5 2.5v47q41 0 122 -4.5t121 -4.5q37 0 107 4.5t106 4.5v-47q-80 -2 -115.5 -23.5t-90.5 -91.5l-328 -406l285 -327q0 -2 25 -34l51 -64q26 -32 64 -79t70.5 -83.5t67.5 -71.5t57 -51q12 -8 22.5 -14.5t25 -9.5t21.5 -4t25.5 -2t26.5 -1v-47q-55 0 -163.5 4t-162 4 t-155.5 -4t-156 -4v47q172 0 172 61q0 41 -161 234l-250 301l-127 -133v-242q0 -147 27.5 -178t175.5 -43v-47q-49 0 -149.5 4t-149.5 4q-53 0 -156 -4t-156 -4z" />
<glyph unicode="L" horiz-adv-x="1269" d="M53 -4v47q45 0 72 2t59.5 18.5t44.5 49.5q20 55 21 272v578q0 217 -21 272q-18 45 -62 57.5t-114 12.5v47q49 0 146.5 -4.5t146.5 -4.5q51 0 155.5 4.5t155.5 4.5v-47q-45 0 -71.5 -2.5t-59 -18.5t-45.5 -49q-20 -55 -20 -272v-607q0 -197 53 -251t248 -54h18 q195 0 273 51q49 31 76.5 73t36 77t20.5 106h51l-18 -362q-74 4 -107 8q-174 -2 -1059 -8z" />
<glyph unicode="M" horiz-adv-x="1802" d="M59 1305v47q72 -4 207 -9q123 4 189 9l450 -1049l438 1049q61 -4 193 -9q131 4 203 9v-49q-145 0 -176 -70q-20 -45 -21 -227v-742q0 -147 27.5 -178t175.5 -43v-47q-55 2 -157.5 5t-149.5 3q-51 0 -154.5 -4t-155.5 -4v47q147 12 175 43t28 178v893h-4l-233 -571 q-43 -98 -128 -295t-128 -295h-21l-498 1161h-4v-862q0 -129 40 -187.5t157 -64.5v-47q-37 0 -112.5 4t-114.5 4q-35 0 -107 -4t-108 -4v47q184 0 184 186v873q0 86 -18 133q-18 45 -62.5 57.5t-114.5 12.5z" />
<glyph unicode="N" horiz-adv-x="1556" d="M45 1305v47q33 0 97.5 -4.5t97.5 -4.5q27 0 81 4.5t80 4.5l865 -1055h4v569q0 231 -19 316q-6 25 -12 42t-17.5 29.5t-19.5 19.5t-27.5 12t-28.5 7t-37 6.5t-40 6.5v47q37 0 112.5 -4.5t112.5 -4.5q35 0 107 3.5t110 5.5v-47q-6 0 -29.5 -2.5t-29.5 -4.5t-23.5 -5 t-24.5 -9t-18.5 -15t-17.5 -22.5t-12 -32.5q-25 -78 -25 -358v-883h-61q-45 55 -135 170l-801 971h-4v-688q0 -229 30 -299q8 -16 16.5 -28.5t22 -21.5t22.5 -14.5t27.5 -8.5t26.5 -5t31.5 -4t32.5 -2v-47q-39 0 -118 4t-118 4q-37 0 -112.5 -4t-114.5 -4v47q43 4 60.5 7 t48 12.5t45 30t22.5 50.5q16 74 16 283v756q-49 70 -95 95.5t-128 27.5z" />
<glyph unicode="O" horiz-adv-x="1679" d="M96 670q0 299 224.5 502.5t527.5 203.5q301 0 518 -197.5t217 -494.5q0 -311 -214 -511t-529 -200q-307 0 -525.5 197t-218.5 500zM352 670q0 -127 27 -236.5t83 -203t155.5 -147.5t234.5 -54q131 0 227.5 57t148.5 153.5t75.5 205t23.5 231.5q0 96 -15.5 185t-52 174 t-92 147.5t-139.5 100.5t-188 38q-127 0 -224.5 -58.5t-152.5 -154.5t-83 -207.5t-28 -230.5z" />
<glyph unicode="P" horiz-adv-x="1187" d="M57 -4v47q45 0 72 2t59.5 18.5t42.5 49.5q18 55 19 272v576q0 219 -19 274q-8 25 -25.5 41t-48 21.5t-47 6.5t-53.5 1v47q53 -2 155.5 -5.5t154.5 -3.5q49 0 146 4.5t146 4.5q123 -4 222.5 -36t174 -114t74.5 -205q0 -86 -32.5 -152.5t-83.5 -107.5t-124 -66.5 t-142.5 -34.5t-149.5 -9q-23 0 -80 4l-57 2v-248q0 -217 20 -272q8 -23 23.5 -37.5t39 -20.5t40 -8t50.5 -3t44 -1v-47q-53 0 -159.5 4t-160.5 4q-49 0 -149.5 -3t-151.5 -5zM461 688q12 0 54 -4t65 -4q160 0 237.5 73.5t77.5 237.5q0 301 -293 301q-106 0 -127 -12 q-14 -8 -14 -84v-508z" />
<glyph unicode="Q" horiz-adv-x="1638" d="M96 657q0 305 225.5 512t534.5 207q297 0 515 -192.5t218 -485.5q0 -201 -112.5 -369.5t-296.5 -269.5q-94 -51 -256 -83.5t-250 -92.5v-4q27 0 71 4q145 0 378 -87t368 -87q74 0 129 20.5t78.5 45t40 45t20.5 20.5q12 0 13 -53q0 -129 -103.5 -215t-241.5 -86 q-94 0 -184 35t-158.5 85t-133 101t-135.5 86t-138.5 35t-153.5 -53.5t-106 -53.5q-39 0 -39 43q0 53 149 89l207 116q-285 70 -462 242t-177 446zM352 674q0 -123 25.5 -233.5t80 -208t154 -155t230.5 -57.5q162 0 277.5 99.5t164.5 240t49 299.5q0 119 -25.5 230.5 t-79.5 211t-150.5 160t-223.5 60.5q-131 0 -231.5 -56.5t-157.5 -150.5t-85 -205.5t-28 -234.5z" />
<glyph unicode="R" horiz-adv-x="1351" d="M57 -4v47q45 0 72 2t59.5 18.5t42.5 49.5q18 55 19 272v578q0 217 -19 272q-8 25 -25.5 41t-47 21.5t-47 6.5t-54.5 1v47q57 0 176 -4.5t177 -4.5q43 0 130 4.5t130 4.5q98 0 174 -13.5t146.5 -48.5t109.5 -104.5t39 -171.5q0 -158 -104.5 -248t-266.5 -104l434 -498 q53 -61 90 -85t111 -36v-47q-31 0 -92.5 4t-91.5 4q-27 0 -78 -4t-76 -4l-96 119l-340 422q-8 10 -26.5 32.5t-24 26.5t-17.5 14.5t-24.5 11.5t-30 3t-45.5 2v-242q0 -217 18 -272q8 -25 25.5 -41.5t48.5 -21.5t47 -6t53 -1v-47q-45 0 -141 3t-147 5q-51 0 -154 -4t-154 -4z M461 682q96 0 146 3t117 18.5t99.5 46t56 90t23.5 145.5q0 139 -75.5 223t-211.5 84q-129 0 -133 -2q-23 -10 -22 -73v-535z" />
<glyph unicode="S" d="M92 10v400h47q76 -381 387 -381q125 0 209 67.5t84 188.5q0 66 -25.5 118t-76.5 89.5t-95 60t-114 51.5q-84 33 -141.5 62.5t-119 77t-93 114t-31.5 150.5q0 170 115.5 269t289.5 99q162 0 310 -104l47 80h22l11 -355h-48q-90 324 -342 324q-100 0 -169.5 -59.5 t-69.5 -157.5q0 -47 18.5 -86t39 -62.5t67.5 -51t68 -37.5l79 -33q102 -43 163.5 -75t137.5 -87.5t113 -130t37 -170.5q0 -188 -146.5 -293t-343.5 -105q-193 0 -358 123l-49 -86h-23z" />
<glyph unicode="T" horiz-adv-x="1351" d="M43 1032v320h1257l19 -320h-55q-8 147 -72 200.5t-211 53.5h-35h-39q-12 0 -35.5 -1t-36 -5t-26.5 -10t-20.5 -15.5t-6.5 -23.5v-971q0 -121 42 -166t186 -51v-47q-55 0 -170 4t-170 4q-53 0 -162 -3t-164 -5v47q143 6 185 51t42 166v971q0 20 -11 32.5t-37.5 16.5t-45 5 t-57.5 1h-21q-90 0 -135 -6t-90 -29.5t-63.5 -76t-20.5 -142.5h-47z" />
<glyph unicode="U" horiz-adv-x="1597" d="M57 1305v47q49 0 145.5 -4.5t145.5 -4.5q53 0 155.5 4.5t155.5 4.5v-47q-37 0 -54 -1t-47 -6.5t-48 -21.5t-27 -41q-18 -55 -18 -272v-504q0 -205 90 -308.5t293 -103.5q424 0 424 422v449q0 229 -21 292q-18 57 -66 76t-124 19v47q41 0 118.5 -4.5t118.5 -4.5 q37 0 114 3.5t116 5.5v-47q-102 -4 -133 -29q-23 -16 -33 -45q-29 -74 -29 -313v-379q0 -287 -125 -426.5t-409 -139.5q-283 0 -414 114t-131 386v490q0 217 -21 272q-18 45 -62 57.5t-114 12.5z" />
<glyph unicode="V" horiz-adv-x="1310" d="M-61 1305v47q47 0 144 -4.5t144 -4.5q51 0 151.5 4.5t149.5 4.5v-47q-33 0 -52 -2.5t-48 -8.5t-44 -25.5t-15 -47.5q0 -61 155 -471l209 -521l195 476q154 418 153 499q0 37 -12 58.5t-41 29.5t-47 10.5t-59 2.5v47q39 0 116.5 -4.5t116.5 -4.5q37 0 108.5 4.5t106.5 4.5 v-47q-43 0 -79 -15.5t-57.5 -32t-45 -57.5t-31.5 -61.5t-27.5 -75.5t-25.5 -70l-416 -1034h-61l-441 1094q-6 12 -19 47t-18.5 47t-18.5 39.5t-23.5 39t-29 30t-36.5 26.5t-44.5 14.5t-57.5 8.5z" />
<glyph unicode="W" horiz-adv-x="1843" d="M-41 1305v47q49 0 147.5 -4.5t147.5 -4.5t151.5 4.5t151.5 4.5v-47q-4 0 -26.5 -2.5t-30.5 -3.5t-29.5 -4t-31 -7t-25 -12t-22.5 -17.5t-13 -23.5t-6 -31q0 -31 61 -250l215 -702h4l322 1100h65l336 -1084h4l140 447q109 367 108 452q0 43 -9 70t-38 40t-46 17t-67 9 q-10 2 -16 2v47q37 0 110.5 -4.5t110.5 -4.5q35 0 106.5 4.5t106.5 4.5v-47q-27 0 -51.5 -7.5t-40.5 -16.5t-32.5 -31.5t-26 -34t-21.5 -45t-15 -44t-13.5 -49.5t-12.5 -43l-338 -1075h-71l-320 1047h-4l-162 -557q-29 -82 -84 -245t-84 -245h-69l-359 1102l-18 55 q-16 55 -29.5 87t-28.5 48q-16 23 -42.5 34t-45 14.5t-59.5 5.5z" />
<glyph unicode="X" horiz-adv-x="1515" d="M29 1305v47q45 0 139 -4.5t139 -4.5q49 0 151.5 4.5t151.5 4.5v-47h-19q-13 0 -21.5 -1t-21.5 -2.5t-22.5 -2.5t-20.5 -4t-18.5 -7t-14.5 -9t-10 -12t-3 -18q0 -29 71 -129l263 -336l81 113q4 4 27 34t35 47t35.5 49t38 55.5t30 51t22.5 50t7 39.5q0 29 -16.5 46t-35 21 t-50 7t-45.5 8v47q41 0 122.5 -4.5t122.5 -4.5q37 0 106.5 4.5t106.5 4.5v-47q-100 -16 -141 -50q-16 -12 -40.5 -40.5t-42 -52t-44.5 -59.5t-35 -46l-250 -320l453 -569q35 -45 58.5 -68.5t63.5 -42.5q33 -15 70 -15q8 0 17 1v-47q-47 0 -143.5 4t-145.5 4q-51 0 -154.5 -4 t-154.5 -4v47q6 2 49 2t73.5 8t30.5 31q0 41 -108 180l-246 320l-137 -174q-174 -227 -174 -299q0 -14 6 -26.5t18.5 -20t23.5 -11.5t29.5 -6t30 -3t29.5 -1h23v-47q-41 0 -124 4t-124 4t-121 -4t-119 -4v47q96 8 151.5 48t125.5 130l321 410l-422 536q-35 43 -44 54.5 t-36.5 38t-54 35t-63.5 10.5z" />
<glyph unicode="Y" d="M-137 1305v47q47 0 139 -4.5t139 -4.5t143.5 4.5t145.5 4.5v-47q-154 0 -154 -66q0 -45 54 -143l266 -494l131 209q203 338 203 408q0 12 -3 22t-10.5 18.5t-12.5 14.5t-17.5 10t-19.5 7t-22.5 5t-21.5 3t-21.5 3.5t-19.5 2.5v47q37 0 110 -4.5t109 -4.5q35 0 100.5 4.5 t100.5 4.5v-47q-55 -4 -98 -35t-61.5 -57.5t-57.5 -90.5l-354 -585v-273q0 -147 27.5 -178t175.5 -43v-47q-51 0 -153.5 4t-154 4t-156 -4t-157.5 -4v47q147 12 177 44t30 177v254l-189 326l-36 69q-37 72 -71 132.5t-76 129t-66 93.5q-16 18 -32 24t-46.5 8.5t-40.5 4.5z " />
<glyph unicode="Z" horiz-adv-x="1228" d="M72 0l784 1296h-297q-96 0 -149.5 -7t-105.5 -33.5t-79.5 -82t-42.5 -149.5h-55l20 328h975l-780 -1297h346q209 0 289 57.5t121 260.5h55l-31 -373h-1050z" />
<glyph unicode="[" horiz-adv-x="901" d="M322 -307v1704h432v-66h-297v-1573h297v-65h-432z" />
<glyph unicode="\" horiz-adv-x="532" d="M-227 1397h92l897 -1673h-86z" />
<glyph unicode="]" horiz-adv-x="901" d="M147 -242h297v1573h-297v66h433v-1704h-433v65z" />
<glyph unicode="^" d="M70 514l391 829h143l391 -829h-104l-359 727l-366 -727h-96z" />
<glyph unicode="_" horiz-adv-x="1024" d="M0 -154h1024v-102h-1024v102z" />
<glyph unicode="`" horiz-adv-x="737" d="M135 1315q0 29 20.5 50t49.5 21q33 0 90 -47l321 -254h-75l-277 119q-2 0 -25.5 10.5t-30.5 13.5t-25.5 13t-25.5 19.5t-14.5 24t-7.5 30.5z" />
<glyph unicode="a" horiz-adv-x="983" d="M70 154q0 25 6 49t14 42.5t26.5 39t29 33t38 31t38.5 26.5t45 24.5t43 20.5t45 20.5t40 18.5l203 98q16 8 16 59q0 123 -32.5 180.5t-147.5 57.5q-61 0 -96 -6t-64.5 -33t-31.5 -78q-4 -37 -24.5 -63.5t-57.5 -26.5q-35 0 -56.5 20.5t-21.5 53.5q0 53 43 91t108.5 56.5 t121 25.5t104.5 7q178 0 255 -62.5t77 -232.5v-338v-20v-27q0 -8 1 -27.5t3 -30.5t5 -28.5t8 -28t12 -20.5t18.5 -15t23.5 -5t21.5 3t19.5 12t14.5 14t15.5 19.5t13 16.5l39 -20q-27 -55 -79 -96.5t-105 -41.5q-61 0 -110.5 42t-65.5 104q-180 -145 -342 -146 q-86 0 -149.5 49.5t-63.5 131.5zM260 203q0 -59 36 -103.5t95 -44.5q104 0 225 117v334q-14 -6 -67 -30.5t-81 -39t-74 -43t-70.5 -53.5t-44 -61.5t-19.5 -75.5z" />
<glyph unicode="b" horiz-adv-x="1146" d="M35 1290v41l327 66v-611q113 115 279 115q193 0 318.5 -134t125.5 -325q0 -197 -131 -333t-327 -136q-86 0 -172 35t-140 96l-98 -118h-29v1032q0 176 -20 219q-6 14 -17.5 24.5t-28 15.5t-26.5 7t-32.5 4t-28.5 2zM362 242q0 -213 222 -213q160 0 228.5 117.5 t68.5 289.5q0 76 -14.5 142.5t-47.5 127t-92 95.5t-139 35q-57 0 -116.5 -29t-84.5 -78t-25 -151v-336z" />
<glyph unicode="c" horiz-adv-x="942" d="M82 408q0 213 143.5 353t358.5 140q51 0 105 -9t107.5 -43t53.5 -85q0 -29 -20.5 -52.5t-47.5 -23.5q-61 0 -90 80q-18 47 -39.5 62.5t-77.5 15.5q-104 0 -171.5 -66.5t-92 -152.5t-24.5 -187q0 -80 14 -146.5t46 -127t91.5 -94t143.5 -33.5q147 0 258 129l43 -37 q-61 -78 -158.5 -118t-202.5 -40q-190 0 -315 122.5t-125 312.5z" />
<glyph unicode="d" horiz-adv-x="1187" d="M78 425.5q0 192.5 123 334t313 141.5q184 0 293 -127v324q0 106 -25.5 148t-128.5 44v41l328 66v-1035q0 -160 20 -212q10 -27 23.5 -41.5t38 -19.5t37 -6t49.5 -1v-41l-275 -68q-31 63 -40 156q-129 -156 -319.5 -156t-313.5 130t-123 322.5zM283 426q0 -102 22.5 -186 t88 -147.5t169.5 -63.5q129 0 186.5 86t57.5 221v291q0 92 -75 150.5t-169 58.5q-78 0 -136 -38t-88 -101.5t-43 -130t-13 -140.5z" />
<glyph unicode="e" horiz-adv-x="1024" d="M82 414q0 197 133 342t328 145q162 0 276.5 -88t114.5 -246q0 -8 -3 -12t-9.5 -5t-11.5 -2t-14 0t-13 1h-588l-8 -98q0 -162 84 -287t237 -125q145 0 258 151l43 -43q-141 -174 -364 -174q-195 0 -329 124t-134 317zM305 604h338l21 -2q23 0 29.5 1t22 5t21.5 13.5 t6 23.5q0 96 -51 152.5t-147 56.5q-193 0 -240 -250z" />
<glyph unicode="f" horiz-adv-x="655" d="M18 -4v41q53 4 87 14t52.5 21.5t27 46.5t9.5 57.5t1 85.5v520h-164v56h164v110q0 209 88 318.5t292 109.5q49 0 100.5 -9t100.5 -40t49 -80q0 -27 -21.5 -46t-49.5 -19q-49 0 -72 57q-18 49 -43 69.5t-76 20.5q-123 0 -164 -98q-31 -74 -30 -252v-141h252v-56h-252v-542 q0 -80 18 -127q8 -25 23.5 -40.5t42 -22.5t42 -9t53.5 -3t44 -1v-41q-49 0 -146.5 4t-146.5 4q-47 0 -140.5 -4t-140.5 -4z" />
<glyph unicode="g" d="M68 -281q0 66 44 118t107 52q45 0 86 -36q-49 -8 -77.5 -51.5t-28.5 -94.5q0 -213 325 -213q123 0 211 56.5t88 170.5q0 37 -11 66t-24.5 48.5t-44 34.5t-49 23.5t-61.5 13.5t-58.5 7t-62.5 4t-55 2q-170 6 -230 31q-92 43 -92 153q0 70 54.5 118t125.5 59v4 q-92 31 -155.5 108.5t-63.5 173.5q0 156 113 245t272.5 89t259.5 -92q111 86 199 86q47 0 84 -22.5t37 -65.5q0 -29 -19.5 -48.5t-48.5 -19.5q-31 0 -65.5 36t-67.5 36q-37 0 -84 -39q74 -84 74 -201q0 -303 -393 -321q-174 -6 -209 -51q-10 -16 -10 -35q0 -20 11 -33.5 t32.5 -20t38 -9.5t44 -4t31.5 -1l137 -6q209 -16 285 -49q145 -61 146 -250q0 -94 -40 -162.5t-110 -107.5t-148.5 -56.5t-166.5 -17.5q-70 0 -139.5 13.5t-138 42t-110.5 84.5t-42 132zM270 571q0 -109 48.5 -191.5t148.5 -82.5q109 0 159 80t50 194.5t-49 198.5t-156 84 q-74 0 -121 -46t-63.5 -105.5t-16.5 -131.5z" />
<glyph unicode="h" horiz-adv-x="1228" d="M61 1290v41l328 66v-672h4q111 176 316 176q307 0 307 -287v-370v-46v-43q0 -7 2 -32t8 -30t16.5 -20.5t25.5 -19.5t36.5 -9t52.5 -7v-41q-39 0 -119 4t-118 4q-39 -2 -113 -5t-107 -3v41q53 4 82 12t42.5 34t15.5 46.5t2 73.5v28v304q0 61 -5.5 104t-22.5 93t-57 77 t-102 27q-66 0 -132 -41t-97 -103q-37 -74 -37 -223v-225v-38v-35q0 -9 1 -29.5t3 -26.5t7.5 -20.5t12.5 -19.5t18 -14.5t25.5 -12.5t33 -6t42.5 -5v-41q-37 0 -112.5 4t-112.5 4q-39 0 -117.5 -4t-117.5 -4v41q53 4 82.5 12t43 34t15.5 48.5t2 75.5v24v787q0 176 -20 219 q-6 14 -17.5 24.5t-28 15.5t-26.5 7t-33 4t-29 2z" />
<glyph unicode="i" horiz-adv-x="573" d="M51 797v41l324 63v-657v-53q0 -36 1 -47t6 -34.5t13 -30.5t24.5 -19.5t40 -16.5t58.5 -6v-41q-33 0 -106.5 3t-112.5 5q-41 0 -121 -4t-119 -4v41q98 6 120 37.5t22 126.5v30v293q0 197 -8 228q-13 46 -116 45q-12 1 -26 0zM154 1266q0 45 31.5 77.5t78.5 32.5 q45 0 77 -31.5t32 -78.5q0 -45 -31 -77t-74 -32q-47 0 -80.5 31t-33.5 78z" />
<glyph unicode="j" horiz-adv-x="532" d="M-309 -412q0 27 21.5 44.5t47.5 17.5q31 0 51.5 -23.5t32 -52.5t46 -52.5t90.5 -23.5q43 0 75.5 14.5t53 33t36 54t22.5 62.5t10 75t4 72q1 12 1 30t-1 43q-1 50 -1 63v579q0 197 -8 228q-13 46 -115 45h-26v41l323 63v-1067q0 -190 -103.5 -286.5t-297.5 -96.5 q-51 0 -105.5 10.5t-105.5 44t-51 82.5zM135 1266q0 47 32 78.5t77 31.5q47 0 78.5 -31.5t31.5 -78.5q0 -45 -30.5 -77t-73.5 -32q-47 0 -81 31t-34 78z" />
<glyph unicode="k" d="M59 1290v41l330 66v-961l137 146q156 166 156 209q0 51 -109 51v41q29 -2 90.5 -4t90.5 -5q29 2 87 4.5t87 4.5v-41q-18 0 -33.5 -2t-29 -6.5t-22.5 -6.5t-22 -10l-18 -12q-6 -4 -19 -17l-17 -17q-5 -5 -20.5 -22.5t-21.5 -23.5l-188 -211l393 -385l33 -33q23 -23 32 -29 t29 -16t47 -14v-41q-20 0 -62 4t-62.5 4t-63.5 -4t-64 -4l-389 416l-41 -41v-127v-46v-43q0 -7 3 -32t8.5 -30t15.5 -20.5t25.5 -19.5t38 -9t52.5 -7v-41q-37 0 -114.5 4t-114.5 4t-113.5 -3t-117.5 -5v41q53 4 82.5 12t43 34t15.5 48.5t2 75.5v24v811q0 156 -22 195 q-6 12 -16.5 20.5t-18.5 13.5t-24.5 8t-23 5t-27 4t-24.5 2z" />
<glyph unicode="l" horiz-adv-x="573" d="M47 1290v41l328 66v-1153v-53q0 -36 1 -47t6 -34.5t13 -30.5t24.5 -19.5t40 -16.5t58.5 -6v-41q-41 2 -118.5 5t-116.5 3q-37 0 -113 -4t-113 -4v41q53 4 83 12t43.5 34t15.5 48.5t2 75.5v24v787q0 176 -21 219q-6 14 -17 24.5t-27.5 15.5t-27 7t-33 4t-28.5 2z" />
<glyph unicode="m" horiz-adv-x="1761" d="M57 797v41q59 6 151.5 31.5t131.5 31.5l22 -166q123 166 310 166q225 0 280 -166q109 166 312 166q160 0 239 -98q55 -68 56 -271v-288v-53q0 -38 1 -47t5 -33.5t12 -31.5t23.5 -19.5t39 -16.5t58.5 -6v-41q-39 0 -115 4t-112.5 4t-112.5 -4t-115 -4v41q98 6 119.5 37.5 t21.5 126.5v30v258v29q0 59 -1 90t-10 81t-27.5 77t-57.5 48.5t-94 21.5q-61 0 -116.5 -39t-82.5 -97q-27 -59 -26 -211v-245v-62q0 -29 2 -50t9 -38.5t21.5 -29t40 -18.5t66.5 -9v-41q-37 0 -111.5 4t-111.5 4q-39 0 -116 -4t-116 -4v41q27 2 46.5 4t34 9t24.5 10t17 18.5 t10 18.5t5.5 26.5t3.5 29t1 37.5v41v258v29q0 59 -1 90t-10.5 81t-28 77t-57.5 48.5t-94 21.5q-61 0 -116.5 -39t-81.5 -97q-27 -59 -27 -211v-245v-53v-47q0 -11 4 -34.5t12 -30.5t23.5 -19.5t39 -16.5t58.5 -6v-41q-37 0 -110.5 4t-110.5 4q-39 0 -117 -4t-117 -4v41 q53 4 83 12t43.5 34t15.5 48.5t2 75.5v24v252q0 201 -10 248q-2 14 -8.5 24.5t-10.5 17.5t-15 11t-16.5 7.5t-20.5 4.5t-20 1h-23h-24z" />
<glyph unicode="n" horiz-adv-x="1228" d="M68 797v41q59 6 151 31.5t131 31.5l27 -186h4q104 186 328 186q305 0 305 -283v-374v-38v-35q0 -9 1 -29.5t3 -26.5t7 -20.5t12 -19.5t18.5 -14.5t26 -12.5t33 -6t42.5 -5v-41q-37 0 -111.5 4t-111.5 4q-41 0 -119 -4t-119 -4v41q53 4 83 12t43.5 34t15.5 48.5t2 75.5v24 v263v64q0 15 -3 63.5t-9.5 68t-20.5 54t-33.5 50t-50.5 29t-72 13.5q-117 0 -189.5 -80t-72.5 -195v-317v-46v-43q0 -7 3 -32t8.5 -30t15.5 -20.5t25.5 -19.5t38 -9t52.5 -7v-41q-37 0 -111.5 4t-111.5 4q-39 0 -118.5 -4t-118.5 -4v41q53 4 82.5 12t43 34t15.5 48.5t2 75.5 v24v252q0 201 -10 248q-2 14 -8.5 24.5t-10.5 17.5t-15 11t-16 7.5t-20.5 4.5t-19.5 1h-24h-23z" />
<glyph unicode="o" horiz-adv-x="1146" d="M82 449q0 190 149.5 321t341.5 131q195 0 344.5 -133t149.5 -328q0 -203 -144.5 -335t-349.5 -132q-203 0 -347 137.5t-144 338.5zM287 440q0 -80 13 -148.5t44 -133t92.5 -101.5t147.5 -37q104 0 169.5 67t87 152t21.5 189q0 82 -13 151.5t-44 134t-92.5 102.5 t-147.5 38q-80 0 -137 -39t-86 -102.5t-42 -131t-13 -141.5z" />
<glyph unicode="p" horiz-adv-x="1187" d="M51 797v41q76 10 297 63v-170h4q119 170 303 170q201 0 328 -133t127 -336q0 -190 -126 -324.5t-316 -134.5q-166 0 -295 117v-397v-31q0 -57 2 -80.5t16.5 -50.5t47 -36t91.5 -11v-41q-39 0 -114.5 4t-112.5 4q-41 0 -123 -4t-123 -4v41q53 4 82 12t42.5 34t15.5 47.5 t2 74.5v29v802q0 201 -11 248q-2 14 -8 24.5l-10 17.5t-15.5 11t-16.5 7.5t-20.5 4.5t-19.5 1h-23h-24zM373 344q0 -170 45 -223q70 -82 200 -82q104 0 172 63.5t91.5 148.5t23.5 187q0 76 -13 141.5t-44 126t-88.5 95.5t-136.5 35q-139 0 -207 -117q-43 -74 -43 -230v-145z " />
<glyph unicode="q" horiz-adv-x="1146" d="M78 430q0 199 133 335t332 136q72 0 151.5 -26.5t130.5 -71.5l142 98v-1208v-46v-43q0 -7 2 -32t8 -31t16.5 -20.5t25.5 -18.5t36.5 -10t52.5 -8v-41q-37 0 -111.5 4t-111.5 4q-41 0 -125 -4t-125 -4v41q41 4 68.5 7t45 17.5t26.5 21.5t13.5 39t4.5 45v67v425h-5 q-86 -133 -272 -133q-197 0 -317.5 129t-120.5 328zM283 420q0 -102 20.5 -184t85 -144.5t168.5 -62.5q125 0 180.5 88t55.5 219v219q0 281 -220 281q-84 0 -144 -37t-90 -100.5t-43 -132t-13 -146.5z" />
<glyph unicode="r" horiz-adv-x="819" d="M68 797v41q43 2 89 13t101 27.5t86 22.5q25 -79 25 -178v-29h4q88 207 297 207q55 0 100 -27.5t45 -78.5q0 -29 -21.5 -51.5t-50.5 -22.5q-43 0 -75.5 53t-71.5 53q-43 0 -89 -30.5t-71 -71.5q-47 -84 -47 -279v-202v-35v-16q0 -89 22 -118q24 -32 134 -38v-41 q-39 0 -118 4t-118 4t-118.5 -4t-118.5 -4v41q53 4 82.5 12t43 34t15.5 48.5t2 75.5v24v252q0 207 -12 248q-2 12 -6 21.5t-11.5 16.5t-11.5 12t-14 8.5t-15.5 4.5t-17.5 2t-17 1h-21h-21z" />
<glyph unicode="s" horiz-adv-x="737" d="M66 281h40q66 -260 254 -261q74 0 123 37t49 107q0 20 -6 40.5t-13 35t-23.5 31t-26.5 24.5t-33.5 22.5t-33 19.5t-37 19.5t-33.5 16.5q-59 31 -91 50t-74 54t-61.5 79t-19.5 99q0 104 73.5 175t180.5 71q109 0 198 -51l41 49h25l-4 -256h-41q-16 47 -30.5 77t-39 64.5 t-60.5 52t-81 17.5q-53 0 -92 -29.5t-39 -83.5q0 -31 10 -55t36 -44.5t42 -32t54 -30t48 -24.5q145 -76 187 -113q84 -76 84 -198q0 -121 -89 -196t-212 -75q-133 0 -226 74l-51 -59h-20z" />
<glyph unicode="t" horiz-adv-x="655" d="M92 811v37q195 113 248 258h31v-240h233v-55h-233v-584q0 -188 127 -188q78 0 147 92l37 -27q-49 -131 -238 -131q-248 0 -247 211v627h-105z" />
<glyph unicode="u" horiz-adv-x="1187" d="M39 844v39q29 -2 85 -4t85 -5q27 2 81 5.5t79 3.5v-559q0 -57 5 -97.5t19.5 -88.5t51 -73.5t94.5 -25.5q119 0 199.5 91t80.5 212v274q0 131 -12 158q-23 51 -143 70v41q29 -2 85 -5t85 -6q27 2 80 5.5t79 5.5v-660q0 -39 2 -62.5t20.5 -49t53.5 -25.5q10 0 23.5 1t30 3 t24.5 2v-47l-285 -74l-43 193q-57 -86 -149 -139.5t-193 -53.5q-283 0 -282 293v350q0 131 -13 158q-22 52 -143 70z" />
<glyph unicode="v" horiz-adv-x="860" d="M-31 842v41q37 -2 110 -4t109 -5q139 4 209 9v-41q-117 -6 -116 -68q0 -20 26 -100l199 -494q12 35 66.5 169t96.5 250t42 159q0 70 -117 84v41q25 -2 76 -4t75 -5q25 2 74 4.5t74 4.5v-41q-51 -12 -80 -49q-41 -53 -106 -238l-242 -596h-43l-307 731q-2 4 -11.5 27.5 t-12.5 29t-11 23.5t-14.5 23.5t-16.5 17.5t-21.5 16t-26 8.5t-32.5 6.5z" />
<glyph unicode="w" horiz-adv-x="1310" d="M-29 844v39q37 -2 113 -4t115 -5q37 2 110.5 4.5t110.5 4.5v-39q-129 -6 -129 -90q0 -12 45 -174l119 -379h4l233 676h29l262 -676h4l127 420q25 82 25 124q0 82 -123 99v39q27 -2 81 -4t81 -5q27 2 82 4.5t81 4.5v-39q-29 -2 -77 -33q-14 -10 -29.5 -35.5t-23 -45 t-19.5 -56.5t-14 -41l-215 -674h-54l-256 643l-233 -643h-51l-219 662q-41 129 -60 155q-43 62 -119 68z" />
<glyph unicode="x" d="M23 -4v41q55 0 104 26.5t74.5 54t72.5 85.5l160 198l-276 349q-49 61 -76 75q-23 12 -59 17v41q35 -2 106.5 -4t108.5 -5q37 2 110.5 4.5t110.5 4.5v-41q-2 -2 -33 -5t-55.5 -12.5t-24.5 -25.5q0 -23 103 -146l104 -127l100 127q76 98 76 123q0 35 -35 50.5t-73 15.5v41 q31 -2 93 -4t93 -5q29 2 88 4.5t88 4.5v-41q-39 -2 -66.5 -10.5t-58.5 -36t-39 -35.5t-47 -55l-186 -218l282 -327q6 -6 26.5 -30t26 -29t23 -20t28.5 -20.5t30.5 -12.5t41.5 -11v-41q-37 0 -114.5 4t-114.5 4q-41 0 -121 -4t-119 -4v41h22q17 0 31.5 1t31 4t25.5 12t9 24 q0 20 -47 74l-174 206l-84 -106q-94 -109 -94 -150q0 -53 111 -65v-41q-33 0 -96.5 4t-94.5 4t-96 -4t-96 -4z" />
<glyph unicode="y" horiz-adv-x="860" d="M-31 842v41q35 -2 104.5 -4t104.5 -5q39 2 116 4.5t116 4.5v-41q-2 0 -41 -6.5t-61.5 -21.5t-22.5 -44q0 -39 84 -246l131 -313l153 369q57 137 58 190q0 66 -113 72v41q27 -2 79 -4t79 -5q23 2 67.5 4.5t67.5 4.5v-41q-31 0 -51.5 -13.5t-27.5 -24.5t-21.5 -46 t-20.5 -47l-27 -60l-426 -983q-68 -160 -118 -200q-27 -20 -54 -21q-7 -2 -13 -2q-18 0 -31 12q-17 16 -17 39q0 41 28.5 64.5t69.5 43t58 44.5q33 47 92 188l78 174l-289 674q-37 88 -60 115q-14 14 -44 28.5t-48 14.5z" />
<glyph unicode="z" horiz-adv-x="860" d="M49 0l533 827h-189q-55 0 -79.5 -1t-59.5 -9t-52.5 -24.5t-33.5 -47t-25 -77.5h-39l19 206h690l-530 -827h217q137 0 192.5 28.5t85.5 151.5h35l-18 -227h-746z" />
<glyph unicode="{" horiz-adv-x="573" d="M72 545v8q94 18 124.5 65.5t30.5 151.5v330q0 170 57.5 237.5t217.5 59.5v-4q-78 -20 -111 -73.5t-33 -148.5v-348q0 -119 -33.5 -184.5t-136.5 -85.5v-8q98 -18 134 -76.5t36 -169.5v-381q0 -98 32 -147.5t118 -73.5v-4q-158 0 -219.5 56t-61.5 210v369q1 203 -155 217z " />
<glyph unicode="|" horiz-adv-x="532" d="M199 -512v2048h137v-2048h-137z" />
<glyph unicode="}" horiz-adv-x="573" d="M66 1393v4q158 0 219 -56.5t61 -210.5v-368q0 -203 156 -217v-8q-94 -18 -125 -65.5t-31 -152.5v-329q0 -170 -57.5 -237.5t-216.5 -59.5v4q78 20 110.5 73.5t32.5 147.5v348q0 119 34 184.5t136 86.5v8q-98 18 -134 76.5t-36 169.5v380q0 98 -31.5 147.5t-117.5 74.5z " />
<glyph unicode="~" d="M25 412q61 111 127.5 176t164.5 65q76 0 240 -71q164 -74 211 -74q113 0 203 174l69 -76q-127 -227 -290 -227q-25 0 -58 9t-51 17.5t-66.5 31t-58.5 26.5q-131 57 -215 57q-37 0 -65.5 -12t-57 -46t-39 -48.5t-37.5 -61.5q-6 -10 -10 -16z" />
<glyph unicode="&#xa2;" d="M147 653q0 207 142.5 347.5t349.5 140.5q14 -2 42 -2t42 -2l92 227h76l-94 -240q49 -14 87 -45.5t38 -77.5q0 -29 -19.5 -48t-48.5 -19q-78 0 -90 110h-4l-277 -710q94 -57 179 -58q109 0 245 134l41 -41q-129 -158 -338 -158q-78 0 -168 27l-100 -261h-76l113 287 q-106 47 -169 157.5t-63 231.5zM352 668q0 -184 76 -277l274 692q-31 10 -61 11q-82 0 -141.5 -39t-90 -105.5t-44 -136t-13.5 -145.5z" />
<glyph unicode="&#xa3;" d="M37 109q0 72 47 115.5t121 43.5q111 0 201 -53l10 117q0 31 -4 64.5t-14.5 73.5t-16.5 62.5t-23 71.5l-20 62h-246v73h223q-47 168 -47 269q0 168 103.5 268t271.5 100q162 0 258 -80q66 -57 66 -120q0 -35 -21.5 -60.5t-56.5 -25.5q-74 0 -94 102q-14 61 -25 76 q-41 61 -133 61t-147.5 -61.5t-55.5 -155.5q0 -76 23 -172l49 -201h323v-73h-307q29 -111 29 -193q0 -162 -66 -283q137 -57 283 -57q170 0 262 152q6 -119 -62.5 -215.5t-185.5 -96.5q-53 0 -115.5 20.5t-95 38t-102.5 58.5l-35 21q-39 -61 -105.5 -99.5t-138.5 -38.5 q-63 0 -108 37.5t-45 98.5zM88 113q0 -84 113 -84q123 0 186 116q-10 6 -41 22.5t-46 24t-41 14.5t-50 7q-49 0 -85 -26.5t-36 -73.5z" />
<glyph unicode="&#xa5;" d="M-27 1305v47q43 0 127 -4.5t125 -4.5q43 0 129 4.5t129 4.5v-47q-156 0 -155 -66q0 -20 11 -53t33.5 -78t37 -72.5t42 -77t29.5 -51.5l101 -172l145 230q119 190 119 254q0 18 -8.5 32.5t-16.5 22.5t-28.5 14t-29.5 8t-33.5 5.5t-29.5 3.5v47q33 0 100.5 -4.5t102.5 -4.5 q31 0 94.5 4.5t96.5 4.5v-47q-41 -8 -77 -36t-55.5 -54.5t-46.5 -71.5l-210 -332h237v-74h-285l-43 -65v-129h314v-74h-314v-268q0 -100 29 -123t176 -35v-47q-49 0 -145 4t-145.5 4t-148.5 -4t-149 -4v47q147 12 178 35.5t31 122.5v268h-303v74h303v108l-53 86h-262v74h219 l-156 270q-102 174 -139 201q-23 15 -76 23z" />
<glyph unicode="&#xa7;" horiz-adv-x="1024" d="M111 -131q0 51 32.5 90t83.5 39q45 0 79 -35t34 -80q0 -43 -39 -90q-41 -45 -41 -57q0 -53 90 -80t162 -27q117 0 200 59.5t83 172.5q0 37 -17.5 71.5t-35 55t-61.5 49.5t-58.5 36t-65.5 33l-108 58q-154 80 -243 169t-89 226q0 88 49 155.5t133 100.5q-133 115 -133 275 q0 145 94 226t244 81q76 0 151.5 -21.5t135 -77t59.5 -133.5q0 -49 -32 -85t-79 -36t-76.5 29t-29.5 74q0 41 37 80t37 51q0 37 -74 54.5t-127 17.5q-98 0 -170 -48.5t-72 -140.5q0 -45 19.5 -83t60.5 -70.5t67.5 -49t77.5 -45.5l111 -61q143 -80 228 -170t85 -219 q0 -145 -157 -264q139 -104 139 -271q0 -162 -112.5 -254t-278.5 -92q-145 0 -269 75t-124 212zM193 623q0 -41 35.5 -82t65.5 -60.5t83 -50.5q6 -4 10 -6l182 -105l148 -92q119 90 119 179q0 96 -207 208q-8 6 -13 9l-133 73l-147 92q-35 -18 -52.5 -29t-43 -32.5 t-36.5 -47t-11 -56.5z" />
<glyph unicode="&#xa8;" horiz-adv-x="778" d="M135 1245q0 43 31 72t74 29q41 0 72.5 -30t31.5 -71q0 -45 -29.5 -76.5t-74.5 -31.5t-75 31.5t-30 76.5zM416 1245q0 41 31.5 71t72.5 30t73 -30t32 -71q0 -45 -30 -76.5t-75 -31.5t-74.5 31.5t-29.5 76.5z" />
<glyph unicode="&#xa9;" horiz-adv-x="1515" d="M72 672q0 289 198.5 496.5t481.5 207.5q287 0 489.5 -205.5t202.5 -496.5t-202 -496t-488 -205q-283 0 -482.5 206t-199.5 493zM162 672q0 -252 172 -430.5t419.5 -178.5t417.5 177.5t183 433.5q12 254 -168 433t-434 179q-248 0 -419 -180t-171 -434zM385 666 q0 180 108.5 291.5t284.5 111.5q125 0 273 -51v-207h-52q-2 98 -55 152.5t-151 54.5q-135 0 -207 -96.5t-72 -237.5q0 -137 75 -245.5t204 -108.5q166 0 233 149l41 -16q-35 -90 -122 -140.5t-187 -50.5q-166 0 -269.5 111t-103.5 283z" />
<glyph unicode="&#xaa;" horiz-adv-x="696" d="M92 930q0 23 6 43t22.5 38.5t27 30t38 27.5t36.5 21.5t44 20.5t37 17l88 43q10 8 10 27q0 72 -17 106.5t-81 34.5q-102 0 -104 -51q-4 -74 -54 -74q-23 0 -37 14.5t-14 35.5q0 61 72 86.5t147 25.5q115 0 158 -40t43 -150v-178q0 -123 37 -123q6 0 12 2t11.5 7t8.5 9 t8 12.5t7 10.5l31 -19q-14 -35 -47 -62.5t-66 -27.5q-35 0 -65.5 23.5t-40.5 58.5q-100 -82 -195 -82q-51 0 -87 31t-36 82zM209 958q0 -33 18.5 -56t51.5 -23q61 0 122 65v184q-4 -2 -44 -21.5t-55 -28.5t-43 -29.5t-39 -42t-11 -48.5z" />
<glyph unicode="&#xab;" horiz-adv-x="983" d="M143 453q63 53 187 159l121 115q2 2 10 9t15 12.5t13 5.5q16 0 17 -17q0 -39 -113 -170l-94 -114l90 -113q115 -145 115 -176q0 -20 -19 -21q-8 0 -15 5.5t-16 14.5l-12 11zM477 453q63 53 187 159l120 115q2 2 10.5 9t15.5 12.5t13 5.5q16 0 17 -17q0 -39 -113 -170 l-94 -114l90 -113q115 -145 115 -176q0 -20 -19 -21q-8 0 -15 5.5t-17 14.5l-11 11z" />
<glyph unicode="&#xac;" d="M68 641v94h929v-510h-94v416h-835z" />
<glyph unicode="&#xad;" horiz-adv-x="491" d="M0 391v137h494v-137h-494z" />
<glyph unicode="&#xae;" horiz-adv-x="1515" d="M72 676q0 289 201.5 494.5t486 205.5t484.5 -205.5t200 -494.5q0 -291 -200 -497t-484 -206q-287 0 -487.5 206t-200.5 497zM162 676q0 -256 174 -434.5t424 -178.5t422 178.5t172 434.5q0 254 -172 432t-422 178t-424 -178t-174 -432zM438 1051v30h342q248 0 248 -192 q0 -86 -60.5 -138.5t-148.5 -62.5v-4h4v-2h4q12 0 24.5 -5t24 -14.5t20.5 -18.5t18.5 -24.5t16.5 -25.5t16 -28.5t14 -27.5l12 -28q8 -18 10 -25q47 -100 61 -118q25 -23 74 -23v-31h-86q-55 0 -82 23q-33 27 -78 147q-4 8 -20 48t-30.5 67t-30.5 41q-31 29 -119 29h-35 v-252q0 -47 14.5 -58.5t61.5 -13.5h18v-31h-291v31q10 0 28.5 2t25 2t16.5 4t13 10.5t6 16.5t3 27v585q0 10 -1 18.5t-3 14.5t-7 10t-8 6t-13 4l-16 4q-5 1 -21.5 2t-24.5 1zM637 705h53q231 0 232 174q0 84 -48.5 126t-130.5 42h-53q-27 0 -39 -14.5t-13 -26t-1 -43.5v-258 z" />
<glyph unicode="&#xb0;" horiz-adv-x="819" d="M154 1120q-2 104 73.5 180t182.5 76q104 0 180 -75.5t76 -180.5q0 -106 -76 -181t-180 -75q-106 0 -181 75t-75 181zM221 1120q0 -78 55.5 -133t133 -55t133 55t55.5 133t-56.5 133.5t-133.5 55.5q-76 0 -131.5 -55.5t-55.5 -133.5z" />
<glyph unicode="&#xb1;" d="M68 0v94h929v-94h-929zM68 575v95h417v364h95v-364h417v-95h-417v-370h-95v370h-417z" />
<glyph unicode="&#xb4;" horiz-adv-x="737" d="M135 1085l320 254q57 47 90 47q31 0 51 -21.5t20 -49.5q0 -18 -7 -33.5t-25.5 -29t-28.5 -18.5t-38 -16.5t-32 -13.5l-274 -119h-76z" />
<glyph unicode="&#xb5;" horiz-adv-x="1187" d="M39 844v39q29 -2 85 -4t85 -5q27 2 81 5.5t79 3.5v-559q0 -57 5 -97.5t19.5 -88.5t51 -73.5t94.5 -25.5q119 0 199.5 91t80.5 212v274q0 131 -12 158q-23 51 -143 70v41q29 -2 85 -5t85 -6q27 2 80 5.5t79 5.5v-660q0 -39 2 -62.5t20.5 -49t53.5 -25.5q10 0 23.5 1t30 3 t24.5 2v-47l-285 -74l-43 193q-57 -86 -149 -139.5t-193 -53.5q-72 0 -123 23q10 -100 37 -229q25 -139 25 -179q0 -57 -28 -100t-83 -43q-51 0 -80.5 41t-29.5 94v1036q0 131 -13 158q-22 52 -143 70z" />
<glyph unicode="&#x3bc;" horiz-adv-x="1187" d="M39 844v39q29 -2 85 -4t85 -5q27 2 81 5.5t79 3.5v-559q0 -57 5 -97.5t19.5 -88.5t51 -73.5t94.5 -25.5q119 0 199.5 91t80.5 212v274q0 131 -12 158q-23 51 -143 70v41q29 -2 85 -5t85 -6q27 2 80 5.5t79 5.5v-660q0 -39 2 -62.5t20.5 -49t53.5 -25.5q10 0 23.5 1t30 3 t24.5 2v-47l-285 -74l-43 193q-57 -86 -149 -139.5t-193 -53.5q-72 0 -123 23q10 -100 37 -229q25 -139 25 -179q0 -57 -28 -100t-83 -43q-51 0 -80.5 41t-29.5 94v1036q0 131 -13 158q-22 52 -143 70z" />
<glyph unicode="&#xb6;" horiz-adv-x="1228" d="M68 983q0 102 41 175t112.5 112t152.5 56t177 17h496v-47q-25 2 -51.5 0t-50 -6t-44 -18.5t-31.5 -38.5q-18 -43 -18 -221v-963q0 -217 22 -276q8 -18 21.5 -31.5t34 -19t36 -7.5t43 -3t38.5 -3v-47h-328v1616h-94v-1616h-349v47h36q30 0 41.5 1t36 5t36.5 11.5 t26.5 20.5t20.5 32q18 55 19 270v584q-8 0 -29 -1t-29 -1q-174 0 -270 89t-96 263z" />
<glyph unicode="&#xb7;" horiz-adv-x="655" d="M197 520q0 53 37.5 93t91.5 40q55 0 94 -39t39 -94q0 -53 -38 -94t-93 -41q-53 0 -92 40t-39 95z" />
<glyph unicode="&#x2219;" horiz-adv-x="655" d="M197 520q0 53 37.5 93t91.5 40q55 0 94 -39t39 -94q0 -53 -38 -94t-93 -41q-53 0 -92 40t-39 95z" />
<glyph unicode="&#xb8;" horiz-adv-x="614" d="M135 -248q0 16 11.5 28.5t25.5 12.5q31 0 47 -47q18 -53 72 -53q37 0 60.5 19.5t23.5 54.5q0 88 -123 88q-8 0 -24.5 -1t-24.5 -1l55 147h57l-36 -102q70 2 127 -29t57 -96q0 -59 -47 -92t-111 -33q-53 0 -111.5 28.5t-58.5 75.5z" />
<glyph unicode="&#xba;" horiz-adv-x="737" d="M80 1104q0 115 86 193.5t201 78.5q117 0 203.5 -81t86.5 -195q0 -121 -84 -202t-206 -81q-119 0 -203 84t-84 203zM209 1108q0 -254 168 -254q82 0 116.5 72.5t34.5 165.5q0 96 -35.5 171.5t-121.5 75.5q-88 0 -125 -68.5t-37 -162.5z" />
<glyph unicode="&#xbb;" horiz-adv-x="983" d="M143 168q0 39 113 170l94 115l-90 112q-115 145 -115 176q0 20 19 21q8 0 15 -5t17 -15l11 -11l299 -278q-63 -53 -187 -160l-120 -115q-2 -2 -10.5 -9t-15.5 -12t-13 -5q-17 0 -17 16zM477 168q0 39 113 170l94 115l-90 112q-115 145 -115 176q0 20 19 21q8 0 15 -5 t16 -15l12 -11l299 -278q-63 -53 -187 -160l-121 -115q-2 -2 -10 -9t-15 -12t-13 -5q-17 0 -17 16z" />
<glyph unicode="&#xc0;" horiz-adv-x="1351" d="M-47 -4v47q84 10 125 40t72 105q29 66 85 196t84 196l314 804h69l414 -1040q6 -12 28.5 -66.5t42 -96.5t36.5 -62q45 -61 176 -76v-47q-47 0 -145.5 4t-145.5 4q-49 0 -148.5 -4t-148.5 -4v47h18q14 0 20.5 1t21 2t21.5 2t19.5 4t18.5 7l15 11q9 6 13.5 13t7.5 16.5 t3 21.5q0 55 -41 160l-80 211h-506l-18 -52q-4 -8 -21.5 -52t-27 -69.5t-23.5 -64.5t-20.5 -69.5t-6.5 -53.5q0 -20 9.5 -36.5t19.5 -25t31.5 -13.5t34 -7t39 -4t32.5 -2v-47q-39 0 -112.5 4t-112.5 4q-35 0 -106.5 -4t-106.5 -4zM369 557h452l-225 578zM442 1784 q0 29 20.5 50t49.5 21q33 0 90 -47l322 -254h-76l-277 119q-2 0 -25.5 10.5t-30.5 13.5t-25.5 13t-25.5 19.5t-14.5 24t-7.5 30.5z" />
<glyph unicode="&#xc1;" horiz-adv-x="1351" d="M-47 -4v47q84 10 125 40t72 105q29 66 85 196t84 196l314 804h69l414 -1040q6 -12 28.5 -66.5t42 -96.5t36.5 -62q45 -61 176 -76v-47q-47 0 -145.5 4t-145.5 4q-49 0 -148.5 -4t-148.5 -4v47h18q14 0 20.5 1t21 2t21.5 2t19.5 4t18.5 7l15 11q9 6 13.5 13t7.5 16.5 t3 21.5q0 55 -41 160l-80 211h-506l-18 -52q-4 -8 -21.5 -52t-27 -69.5t-23.5 -64.5t-20.5 -69.5t-6.5 -53.5q0 -20 9.5 -36.5t19.5 -25t31.5 -13.5t34 -7t39 -4t32.5 -2v-47q-39 0 -112.5 4t-112.5 4q-35 0 -106.5 -4t-106.5 -4zM369 557h452l-225 578zM524 1554l320 254 q57 47 90 47q31 0 51 -21.5t20 -49.5q0 -18 -7 -33.5t-25.5 -29t-28.5 -18.5t-38 -16.5t-32 -13.5l-274 -119h-76z" />
<glyph unicode="&#xc2;" horiz-adv-x="1351" d="M-47 -4v47q84 10 125 40t72 105q29 66 85 196t84 196l314 804h69l414 -1040q6 -12 28.5 -66.5t42 -96.5t36.5 -62q45 -61 176 -76v-47q-47 0 -145.5 4t-145.5 4q-49 0 -148.5 -4t-148.5 -4v47h18q14 0 20.5 1t21 2t21.5 2t19.5 4t18.5 7l15 11q9 6 13.5 13t7.5 16.5 t3 21.5q0 55 -41 160l-80 211h-506l-18 -52q-4 -8 -21.5 -52t-27 -69.5t-23.5 -64.5t-20.5 -69.5t-6.5 -53.5q0 -20 9.5 -36.5t19.5 -25t31.5 -13.5t34 -7t39 -4t32.5 -2v-47q-39 0 -112.5 4t-112.5 4q-35 0 -106.5 -4t-106.5 -4zM369 557h452l-225 578zM381 1554l233 301 h113l225 -301h-63l-219 164l-228 -164h-61z" />
<glyph unicode="&#xc3;" horiz-adv-x="1351" d="M-47 -4v47q84 10 125 40t72 105q29 66 85 196t84 196l314 804h69l414 -1040q6 -12 28.5 -66.5t42 -96.5t36.5 -62q45 -61 176 -76v-47q-47 0 -145.5 4t-145.5 4q-49 0 -148.5 -4t-148.5 -4v47h18q14 0 20.5 1t21 2t21.5 2t19.5 4t18.5 7l15 11q9 6 13.5 13t7.5 16.5 t3 21.5q0 55 -41 160l-80 211h-506l-18 -52q-4 -8 -21.5 -52t-27 -69.5t-23.5 -64.5t-20.5 -69.5t-6.5 -53.5q0 -20 9.5 -36.5t19.5 -25t31.5 -13.5t34 -7t39 -4t32.5 -2v-47q-39 0 -112.5 4t-112.5 4q-35 0 -106.5 -4t-106.5 -4zM369 557h452l-225 578zM381 1649 q12 72 64.5 126t121.5 54q43 0 144 -41q100 -39 127 -39q51 0 71 72h54q-6 -68 -56 -125q-53 -61 -116 -62q-51 0 -154 43q-94 41 -129 41q-47 0 -72 -69h-55z" />
<glyph unicode="&#xc4;" horiz-adv-x="1351" d="M-47 -4v47q84 10 125 40t72 105q29 66 85 196t84 196l314 804h69l414 -1040q6 -12 28.5 -66.5t42 -96.5t36.5 -62q45 -61 176 -76v-47q-47 0 -145.5 4t-145.5 4q-49 0 -148.5 -4t-148.5 -4v47h18q14 0 20.5 1t21 2t21.5 2t19.5 4t18.5 7l15 11q9 6 13.5 13t7.5 16.5 t3 21.5q0 55 -41 160l-80 211h-506l-18 -52q-4 -8 -21.5 -52t-27 -69.5t-23.5 -64.5t-20.5 -69.5t-6.5 -53.5q0 -20 9.5 -36.5t19.5 -25t31.5 -13.5t34 -7t39 -4t32.5 -2v-47q-39 0 -112.5 4t-112.5 4q-35 0 -106.5 -4t-106.5 -4zM369 557h452l-225 578zM422 1714 q0 43 31 72t74 29q41 0 72.5 -30t31.5 -71q0 -45 -29.5 -76.5t-74.5 -31.5t-75 31.5t-30 76.5zM703 1714q0 41 31.5 71t72.5 30t73 -30t32 -71q0 -45 -30 -76.5t-75 -31.5t-74.5 31.5t-29.5 76.5z" />
<glyph unicode="&#xc5;" horiz-adv-x="1351" d="M-47 -4v47q84 10 125 40t72 105q29 66 85 196t84 196l314 804h69l414 -1040q6 -12 28.5 -66.5t42 -96.5t36.5 -62q45 -61 176 -76v-47q-47 0 -145.5 4t-145.5 4q-49 0 -148.5 -4t-148.5 -4v47h18q14 0 20.5 1t21 2t21.5 2t19.5 4t18.5 7l15 11q9 6 13.5 13t7.5 16.5 t3 21.5q0 55 -41 160l-80 211h-506l-18 -52q-4 -8 -21.5 -52t-27 -69.5t-23.5 -64.5t-20.5 -69.5t-6.5 -53.5q0 -20 9.5 -36.5t19.5 -25t31.5 -13.5t34 -7t39 -4t32.5 -2v-47q-39 0 -112.5 4t-112.5 4q-35 0 -106.5 -4t-106.5 -4zM369 557h452l-225 578zM483 1638.5 q0 75.5 56.5 130t132.5 54.5q78 0 136 -52.5t58 -127.5q0 -82 -55 -136.5t-137 -54.5q-78 0 -134.5 55.5t-56.5 131zM553 1639q0 -53 37 -90t88 -37q49 0 84 37.5t35 87.5q0 53 -36 91t-89 38q-51 0 -85 -38t-34 -89z" />
<glyph unicode="&#xc6;" horiz-adv-x="1802" d="M-61 -4v51q74 6 127 43t153 223l459 877q2 4 13 25.5t18.5 39t7.5 25.5q0 16 -64 16h-127v56h1092v-310h-47q-14 88 -40 140.5t-77 77t-101 30.5t-145 6h-147q-47 0 -51 -8q-2 -6 -2 -76v-485q193 -8 258 56.5t75 195.5h48q-4 -188 -9 -279q4 -82 9 -254h-48 q-20 150 -91.5 188t-241.5 38v-336q0 -158 36 -207q59 -78 263 -74q92 2 147 11.5t109.5 36t83 83t39.5 144.5h47l-19 -330h-1114v47q45 0 71.5 2t59.5 18.5t45 49.5q20 55 21 272v268h-322l-205 -395q-45 -78 -47 -123q-2 -25 9.5 -43t25.5 -27.5t41 -14.5t42 -6t44 -1v-51 q-135 10 -233 8q-88 2 -213 -8zM508 723h289v559h-4z" />
<glyph unicode="&#xc7;" horiz-adv-x="1392" d="M96 659q0 311 203 514t514 203q123 0 214 -28.5t202 -98.5l33 97h30l17 -404h-47q-27 174 -142.5 280.5t-290.5 106.5q-131 0 -228 -60.5t-148.5 -160.5t-76 -212t-24.5 -237q0 -123 25.5 -231.5t79 -202.5t149.5 -149.5t228 -55.5q104 0 182 34t129 100.5t84 140.5 t57 176h37v-448h-27l-49 104q-195 -154 -450 -154l-27 -75q70 2 127 -29t57 -96q0 -59 -47 -92t-110 -33q-53 0 -111.5 28.5t-58.5 75.5q0 16 11 28.5t26 12.5q31 0 47 -47q18 -53 71 -53q37 0 60.5 19.5t23.5 54.5q0 88 -123 88q-8 0 -24.5 -1t-24.5 -1l47 122 q-293 16 -469 201.5t-176 482.5z" />
<glyph unicode="&#xc8;" horiz-adv-x="1269" d="M53 0v47q45 0 72 2t59.5 18.5t44.5 49.5q20 55 21 272v565q0 217 -21 273q-18 45 -62 57t-114 12v56h1018v-310h-47q-14 88 -40 140.5t-77 77t-101 30.5t-144 6h-148q-47 0 -51 -8q-2 -4 -2 -76v-485q193 -8 258 56.5t76 195.5h47q-4 -188 -8 -279q4 -82 8 -254h-47 q-20 150 -92 188t-242 38v-336q0 -158 37 -207q59 -78 262 -74q92 2 147.5 11.5t109.5 36t82.5 83t39.5 144.5h47l-19 -330h-1114zM401 1784q0 29 20.5 50t49.5 21q33 0 90 -47l322 -254h-76l-277 119q-2 0 -25.5 10.5t-30.5 13.5t-25.5 13t-25.5 19.5t-14.5 24t-7.5 30.5z " />
<glyph unicode="&#xc9;" horiz-adv-x="1269" d="M53 0v47q45 0 72 2t59.5 18.5t44.5 49.5q20 55 21 272v565q0 217 -21 273q-18 45 -62 57t-114 12v56h1018v-310h-47q-14 88 -40 140.5t-77 77t-101 30.5t-144 6h-148q-47 0 -51 -8q-2 -4 -2 -76v-485q22 -1 42 -1q158 0 216 57q66 65 76 196h47q-4 -188 -8 -279 q4 -82 8 -254h-47q-20 150 -92 188t-242 38v-336q0 -158 37 -207q56 -74 242 -74h20q92 2 147.5 11.5t109.5 36t82.5 83t39.5 144.5h47l-19 -330h-1114zM524 1554l320 254q57 47 90 47q31 0 51 -21.5t20 -49.5q0 -18 -7 -33.5t-25.5 -29t-28.5 -18.5t-38 -16.5t-32 -13.5 l-274 -119h-76z" />
<glyph unicode="&#xca;" horiz-adv-x="1269" d="M53 0v47q45 0 72 2t59.5 18.5t44.5 49.5q20 55 21 272v565q0 217 -21 273q-18 45 -62 57t-114 12v56h1018v-310h-47q-14 88 -40 140.5t-77 77t-101 30.5t-144 6h-148q-47 0 -51 -8q-2 -4 -2 -76v-485q193 -8 258 56.5t76 195.5h47q-4 -188 -8 -279q4 -82 8 -254h-47 q-20 150 -92 188t-242 38v-336q0 -158 37 -207q59 -78 262 -74q92 2 147.5 11.5t109.5 36t82.5 83t39.5 144.5h47l-19 -330h-1114zM340 1554l233 301h113l225 -301h-63l-219 164l-228 -164h-61z" />
<glyph unicode="&#xcb;" horiz-adv-x="1269" d="M53 0v47q45 0 72 2t59.5 18.5t44.5 49.5q20 55 21 272v565q0 217 -21 273q-18 45 -62 57t-114 12v56h1018v-310h-47q-14 88 -40 140.5t-77 77t-101 30.5t-144 6h-148q-47 0 -51 -8q-2 -4 -2 -76v-485q22 -1 42 -1q158 0 216 57q66 65 76 196h47q-4 -188 -8 -279 q4 -82 8 -254h-47q-20 150 -92 188t-242 38v-336q0 -158 37 -207q56 -74 242 -74h20q92 2 147.5 11.5t109.5 36t82.5 83t39.5 144.5h47l-19 -330h-1114zM381 1714q0 43 31 72t74 29q41 0 72.5 -30t31.5 -71q0 -45 -29.5 -76.5t-74.5 -31.5t-75 31.5t-30 76.5zM662 1714 q0 41 31.5 71t72.5 30t73 -30t32 -71q0 -45 -30 -76.5t-75 -31.5t-74.5 31.5t-29.5 76.5z" />
<glyph unicode="&#xcc;" horiz-adv-x="737" d="M68 -4v47q45 0 71.5 2t59 18.5t45.5 49.5q20 55 20 272v578q0 217 -20 272q-18 45 -62.5 57.5t-113.5 12.5v47q49 0 147 -4.5t147 -4.5q53 2 156 5.5t154 3.5v-47q-45 0 -72 -2.5t-59.5 -18.5t-44.5 -49q-20 -55 -21 -272v-578q0 -217 21 -272q18 -45 62 -57.5t114 -12.5 v-47q-47 0 -146.5 3t-148.5 5q-51 0 -154.5 -4t-154.5 -4zM135 1784q0 29 20.5 50t49.5 21q33 0 90 -47l321 -254h-75l-277 119q-2 0 -25.5 10.5t-30.5 13.5t-25.5 13t-25.5 19.5t-14.5 24t-7.5 30.5z" />
<glyph unicode="&#xcd;" horiz-adv-x="737" d="M68 -4v47q45 0 71.5 2t59 18.5t45.5 49.5q20 55 20 272v578q0 217 -20 272q-18 45 -62.5 57.5t-113.5 12.5v47q49 0 147 -4.5t147 -4.5q53 2 156 5.5t154 3.5v-47q-45 0 -72 -2.5t-59.5 -18.5t-44.5 -49q-20 -55 -21 -272v-578q0 -217 21 -272q18 -45 62 -57.5t114 -12.5 v-47q-47 0 -146.5 3t-148.5 5q-51 0 -154.5 -4t-154.5 -4zM135 1554l320 254q57 47 90 47q31 0 51 -21.5t20 -49.5q0 -18 -7 -33.5t-25.5 -29t-28.5 -18.5t-38 -16.5t-32 -13.5l-274 -119h-76z" />
<glyph unicode="&#xce;" horiz-adv-x="737" d="M68 -4v47q45 0 71.5 2t59 18.5t45.5 49.5q20 55 20 272v578q0 217 -20 272q-18 45 -62.5 57.5t-113.5 12.5v47q49 0 147 -4.5t147 -4.5q53 2 156 5.5t154 3.5v-47q-45 0 -72 -2.5t-59.5 -18.5t-44.5 -49q-20 -55 -21 -272v-578q0 -217 21 -272q18 -45 62 -57.5t114 -12.5 v-47q-47 0 -146.5 3t-148.5 5q-51 0 -154.5 -4t-154.5 -4zM74 1554l233 301h113l225 -301h-63l-220 164l-227 -164h-61z" />
<glyph unicode="&#xcf;" horiz-adv-x="737" d="M68 -4v47q45 0 71.5 2t59 18.5t45.5 49.5q20 55 20 272v578q0 217 -20 272q-18 45 -62.5 57.5t-113.5 12.5v47q49 0 147 -4.5t147 -4.5q53 2 156 5.5t154 3.5v-47q-45 0 -72 -2.5t-59.5 -18.5t-44.5 -49q-20 -55 -21 -272v-578q0 -217 21 -272q18 -45 62 -57.5t114 -12.5 v-47q-47 0 -146.5 3t-148.5 5q-51 0 -154.5 -4t-154.5 -4zM115 1714q0 43 31 72t74 29q41 0 72.5 -30t31.5 -71q0 -45 -29.5 -76.5t-74.5 -31.5t-75 31.5t-30 76.5zM396 1714q0 41 31.5 71t72.5 30t73 -30t32 -71q0 -45 -30 -76.5t-75 -31.5t-74.5 31.5t-29.5 76.5z" />
<glyph unicode="&#xd0;" horiz-adv-x="1515" d="M57 -4v47q45 0 72 2t59.5 18.5t42.5 49.5q18 55 19 272v283h-162v73h162v217q0 217 -19 273q-8 25 -25.5 41t-47 21t-47 6t-54.5 1v52q41 0 128 -3t130 -6q55 0 166 4.5t166 4.5q330 6 545 -186.5t215 -520.5q0 -319 -191.5 -488t-515.5 -161q-61 0 -182 4t-182 4 q-47 -2 -140.5 -5t-138.5 -3zM460 261q1 -13 4 -44t10 -51.5t20 -36.5q53 -78 229 -78q129 0 217 43t132 126t61.5 175t17.5 217q0 332 -123 508t-432 176q-109 0 -123 -14q-12 -12 -12 -63v-478h205v-73h-205v-312q0 -2 -1 -42t0 -53z" />
<glyph unicode="&#xd1;" horiz-adv-x="1556" d="M45 1305v47q33 0 97.5 -4.5t97.5 -4.5q27 0 81 4.5t80 4.5l865 -1055h4v569q0 231 -19 316q-6 25 -12 42t-17.5 29.5t-19.5 19.5t-27.5 12t-28.5 7t-37 6.5t-40 6.5v47q37 0 112.5 -4.5t112.5 -4.5q35 0 107 3.5t110 5.5v-47q-6 0 -29.5 -2.5t-29.5 -4.5t-23.5 -5 t-24.5 -9t-18.5 -15t-17.5 -22.5t-12 -32.5q-25 -78 -25 -358v-883h-61q-45 55 -135 170l-801 971h-4v-688q0 -229 30 -299q8 -16 16.5 -28.5t22 -21.5t22.5 -14.5t27.5 -8.5t26.5 -5t31.5 -4t32.5 -2v-47q-39 0 -118 4t-118 4q-37 0 -112.5 -4t-114.5 -4v47q43 4 60.5 7 t48 12.5t45 30t22.5 50.5q16 74 16 283v756q-49 70 -95 95.5t-128 27.5zM483 1649q12 72 64.5 126t122.5 54q43 0 143 -41q100 -39 127 -39q51 0 72 72h53q-6 -66 -55 -125q-53 -61 -117 -62q-51 0 -154 43q-94 41 -129 41q-47 0 -72 -69h-55z" />
<glyph unicode="&#xd2;" horiz-adv-x="1679" d="M96 670q0 299 224.5 502.5t527.5 203.5q301 0 518 -197.5t217 -494.5q0 -311 -214 -511t-529 -200q-307 0 -525.5 197t-218.5 500zM352 670q0 -127 27 -236.5t83 -203t155.5 -147.5t234.5 -54q131 0 227.5 57t148.5 153.5t75.5 205t23.5 231.5q0 96 -15.5 185t-52 174 t-92 147.5t-139.5 100.5t-188 38q-127 0 -224.5 -58.5t-152.5 -154.5t-83 -207.5t-28 -230.5zM606 1784q0 29 20.5 50t49.5 21q33 0 90 -47l321 -254h-75l-277 119q-2 0 -25.5 10.5t-30.5 13.5t-25.5 13t-25.5 19.5t-14.5 24t-7.5 30.5z" />
<glyph unicode="&#xd3;" horiz-adv-x="1679" d="M96 670q0 299 224.5 502.5t527.5 203.5q301 0 518 -197.5t217 -494.5q0 -311 -214 -511t-529 -200q-307 0 -525.5 197t-218.5 500zM352 670q0 -127 27 -236.5t83 -203t155.5 -147.5t234.5 -54q131 0 227.5 57t148.5 153.5t75.5 205t23.5 231.5q0 96 -15.5 185t-52 174 t-92 147.5t-139.5 100.5t-188 38q-127 0 -224.5 -58.5t-152.5 -154.5t-83 -207.5t-28 -230.5zM729 1554l320 254q57 47 90 47q31 0 51 -21.5t20 -49.5q0 -18 -7 -33.5t-25.5 -29t-28.5 -18.5t-38 -16.5t-32 -13.5l-274 -119h-76z" />
<glyph unicode="&#xd4;" horiz-adv-x="1679" d="M96 670q0 299 224.5 502.5t527.5 203.5q301 0 518 -197.5t217 -494.5q0 -311 -214 -511t-529 -200q-307 0 -525.5 197t-218.5 500zM352 670q0 -127 27 -236.5t83 -203t155.5 -147.5t234.5 -54q131 0 227.5 57t148.5 153.5t75.5 205t23.5 231.5q0 96 -15.5 185t-52 174 t-92 147.5t-139.5 100.5t-188 38q-127 0 -224.5 -58.5t-152.5 -154.5t-83 -207.5t-28 -230.5zM545 1554l233 301h113l225 -301h-63l-219 164l-228 -164h-61z" />
<glyph unicode="&#xd5;" horiz-adv-x="1679" d="M96 670q0 299 224.5 502.5t527.5 203.5q301 0 518 -197.5t217 -494.5q0 -311 -214 -511t-529 -200q-307 0 -525.5 197t-218.5 500zM352 670q0 -127 27 -236.5t83 -203t155.5 -147.5t234.5 -54q131 0 227.5 57t148.5 153.5t75.5 205t23.5 231.5q0 96 -15.5 185t-52 174 t-92 147.5t-139.5 100.5t-188 38q-127 0 -224.5 -58.5t-152.5 -154.5t-83 -207.5t-28 -230.5zM545 1649q12 72 64.5 126t122.5 54q43 0 143 -41q100 -39 127 -39q51 0 72 72h53q-6 -66 -55 -125q-53 -61 -117 -62q-51 0 -154 43q-94 41 -129 41q-47 0 -72 -69h-55z" />
<glyph unicode="&#xd6;" horiz-adv-x="1679" d="M96 670q0 299 224.5 502.5t527.5 203.5q301 0 518 -197.5t217 -494.5q0 -311 -214 -511t-529 -200q-307 0 -525.5 197t-218.5 500zM352 670q0 -127 27 -236.5t83 -203t155.5 -147.5t234.5 -54q131 0 227.5 57t148.5 153.5t75.5 205t23.5 231.5q0 96 -15.5 185t-52 174 t-92 147.5t-139.5 100.5t-188 38q-127 0 -224.5 -58.5t-152.5 -154.5t-83 -207.5t-28 -230.5zM586 1714q0 43 31 72t74 29q41 0 72.5 -30t31.5 -71q0 -45 -29.5 -76.5t-74.5 -31.5t-75 31.5t-30 76.5zM867 1714q0 41 31.5 71t72.5 30t73 -30t32 -71q0 -45 -30 -76.5 t-75 -31.5t-74.5 31.5t-29.5 76.5z" />
<glyph unicode="&#xd8;" horiz-adv-x="1679" d="M96 662q0 305 220.5 509.5t529.5 204.5q201 0 356 -88l135 197h107l-170 -242q309 -203 309 -571q0 -297 -218 -498t-521 -201q-221 0 -379 90l-156 -223h-108l188 269q-139 98 -216 240.5t-77 312.5zM352 682q0 -272 117 -457l672 979q-117 117 -297 117 q-127 0 -225.5 -56.5t-154.5 -149.5t-84 -203.5t-28 -229.5zM526 156q139 -127 301 -127q176 0 292 92t162 229t46 312q0 305 -127 473z" />
<glyph unicode="&#xd9;" horiz-adv-x="1597" d="M57 1305v47q49 0 145.5 -4.5t145.5 -4.5q53 0 155.5 4.5t155.5 4.5v-47q-37 0 -54 -1t-47 -6.5t-48 -21.5t-27 -41q-18 -55 -18 -272v-504q0 -205 90 -308.5t293 -103.5q424 0 424 422v449q0 229 -21 292q-18 57 -66 76t-124 19v47q41 0 118.5 -4.5t118.5 -4.5 q37 0 114 3.5t116 5.5v-47q-102 -4 -133 -29q-23 -16 -33 -45q-29 -74 -29 -313v-379q0 -287 -125 -426.5t-409 -139.5q-283 0 -414 114t-131 386v490q0 217 -21 272q-18 45 -62 57.5t-114 12.5zM565 1784q0 29 20.5 50t49.5 21q33 0 90 -47l322 -254h-76l-277 119 q-2 0 -25.5 10.5t-30.5 13.5t-25.5 13t-25.5 19.5t-14.5 24t-7.5 30.5z" />
<glyph unicode="&#xda;" horiz-adv-x="1597" d="M57 1305v47q49 0 145.5 -4.5t145.5 -4.5q53 0 155.5 4.5t155.5 4.5v-47q-37 0 -54 -1t-47 -6.5t-48 -21.5t-27 -41q-18 -55 -18 -272v-504q0 -205 90 -308.5t293 -103.5q424 0 424 422v449q0 229 -21 292q-18 57 -66 76t-124 19v47q41 0 118.5 -4.5t118.5 -4.5 q37 0 114 3.5t116 5.5v-47q-102 -4 -133 -29q-23 -16 -33 -45q-29 -74 -29 -313v-379q0 -287 -125 -426.5t-409 -139.5q-283 0 -414 114t-131 386v490q0 217 -21 272q-18 45 -62 57.5t-114 12.5zM688 1554l320 254q57 47 90 47q31 0 51 -21.5t20 -49.5q0 -18 -7 -33.5 t-25.5 -29t-28.5 -18.5t-38 -16.5t-32 -13.5l-274 -119h-76z" />
<glyph unicode="&#xdb;" horiz-adv-x="1597" d="M57 1305v47q49 0 145.5 -4.5t145.5 -4.5q53 0 155.5 4.5t155.5 4.5v-47q-37 0 -54 -1t-47 -6.5t-48 -21.5t-27 -41q-18 -55 -18 -272v-504q0 -205 90 -308.5t293 -103.5q424 0 424 422v449q0 229 -21 292q-18 57 -66 76t-124 19v47q41 0 118.5 -4.5t118.5 -4.5 q37 0 114 3.5t116 5.5v-47q-102 -4 -133 -29q-23 -16 -33 -45q-29 -74 -29 -313v-379q0 -287 -125 -426.5t-409 -139.5q-283 0 -414 114t-131 386v490q0 217 -21 272q-18 45 -62 57.5t-114 12.5zM504 1554l233 301h113l225 -301h-63l-219 164l-228 -164h-61z" />
<glyph unicode="&#xdc;" horiz-adv-x="1597" d="M57 1305v47q49 0 145.5 -4.5t145.5 -4.5q53 0 155.5 4.5t155.5 4.5v-47q-37 0 -54 -1t-47 -6.5t-48 -21.5t-27 -41q-18 -55 -18 -272v-504q0 -205 90 -308.5t293 -103.5q424 0 424 422v449q0 229 -21 292q-18 57 -66 76t-124 19v47q41 0 118.5 -4.5t118.5 -4.5 q37 0 114 3.5t116 5.5v-47q-102 -4 -133 -29q-23 -16 -33 -45q-29 -74 -29 -313v-379q0 -287 -125 -426.5t-409 -139.5q-283 0 -414 114t-131 386v490q0 217 -21 272q-18 45 -62 57.5t-114 12.5zM586 1714q0 43 31 72t74 29q41 0 72.5 -30t31.5 -71q0 -45 -29.5 -76.5 t-74.5 -31.5t-75 31.5t-30 76.5zM867 1714q0 41 31.5 71t72.5 30t73 -30t32 -71q0 -45 -30 -76.5t-75 -31.5t-74.5 31.5t-29.5 76.5z" />
<glyph unicode="&#xdd;" d="M-137 1305v47q47 0 139 -4.5t139 -4.5t143.5 4.5t145.5 4.5v-47q-154 0 -154 -66q0 -45 54 -143l266 -494l131 209q203 338 203 408q0 12 -3 22t-10.5 18.5t-12.5 14.5t-17.5 10t-19.5 7t-22.5 5t-21.5 3t-21.5 3.5t-19.5 2.5v47q37 0 110 -4.5t109 -4.5q35 0 100.5 4.5 t100.5 4.5v-47q-55 -4 -98 -35t-61.5 -57.5t-57.5 -90.5l-354 -585v-273q0 -147 27.5 -178t175.5 -43v-47q-51 0 -153.5 4t-154 4t-156 -4t-157.5 -4v47q147 12 177 44t30 177v254l-189 326l-36 69q-37 72 -71 132.5t-76 129t-66 93.5q-16 18 -32 24t-46.5 8.5t-40.5 4.5z M463 1554l320 254q57 47 90 47q31 0 51 -21.5t20 -49.5q0 -18 -7 -33.5t-25.5 -29t-28.5 -18.5t-38 -16.5t-32 -13.5l-274 -119h-76z" />
<glyph unicode="&#xde;" horiz-adv-x="1187" d="M57 -4v47q45 0 72 2t59.5 18.5t42.5 49.5q18 55 19 272v576q0 219 -19 274q-8 25 -25.5 41t-48 21.5t-47 6.5t-53.5 1v47q59 -2 160.5 -5.5t128.5 -3.5q53 2 155.5 5.5t153.5 3.5v-47q-45 0 -71.5 -2.5t-59 -18.5t-45.5 -49q-18 -51 -18 -141v-58q76 2 198 6 q123 -4 222.5 -35.5t174 -113.5t74.5 -205q0 -86 -32.5 -152.5t-83.5 -107.5t-124 -66.5t-142.5 -35t-149.5 -9.5q-23 0 -80 2l-57 5q4 -170 20 -211q8 -23 23.5 -37.5t39 -20.5t40 -8t50.5 -3t44 -1v-47q-53 0 -159.5 4t-160.5 4q-49 0 -149.5 -3t-151.5 -5zM461 373 q12 0 54 -4t65 -4q160 0 237.5 73.5t77.5 237.5q0 301 -293 301q-104 0 -127 -12q-14 -8 -14 -84v-508z" />
<glyph unicode="&#xdf;" horiz-adv-x="1105" d="M37 -4v47q53 4 83 11t43 32t15 45.5t2 73.5v26v709q0 219 68 309q109 147 313 148q150 0 259.5 -89t109.5 -235q0 -117 -79 -196.5t-200 -112.5v-4q164 -16 264.5 -130t100.5 -280q0 -156 -96.5 -266.5t-247.5 -110.5q-66 0 -126.5 33t-60.5 92q0 70 68 70 q29 0 49.5 -22.5t24.5 -51.5q0 -4 2 -14t2 -13.5t2 -11.5t3 -10l4 -8q3 -6 7 -8t9.5 -4t13.5 -3.5t16 -1.5q43 0 72.5 38t43 96.5t18.5 104.5t5 89q0 203 -72.5 303.5t-242.5 81.5v55q68 2 103.5 10.5t68.5 34t45 77t12 137.5q0 303 -188 303q-37 0 -66.5 -10.5t-49 -32 t-35 -44t-23.5 -58.5t-14.5 -62.5t-7.5 -69.5t-2 -66.5t0 -65.5t1 -56v-672q0 -8 -1 -41t0 -42t6.5 -30.5t14.5 -30t27.5 -17.5t44.5 -11v-45q-33 0 -96 4t-94 4q-37 0 -109.5 -4t-109.5 -4z" />
<glyph unicode="&#xe0;" horiz-adv-x="983" d="M70 154q0 25 6 49t14 42.5t26.5 39t29 33t38 31t38.5 26.5t45 24.5t43 20.5t45 20.5t40 18.5l203 98q16 8 16 59q0 123 -32.5 180.5t-147.5 57.5q-61 0 -96 -6t-64.5 -33t-31.5 -78q-4 -37 -24.5 -63.5t-57.5 -26.5q-35 0 -56.5 20.5t-21.5 53.5q0 53 43 91t108.5 56.5 t121 25.5t104.5 7q178 0 255 -62.5t77 -232.5v-338v-20v-27q0 -8 1 -27.5t3 -30.5t5 -28.5t8 -28t12 -20.5t18.5 -15t23.5 -5t21.5 3t19.5 12t14.5 14t15.5 19.5t13 16.5l39 -20q-27 -55 -79 -96.5t-105 -41.5q-61 0 -110.5 42t-65.5 104q-180 -145 -342 -146 q-86 0 -149.5 49.5t-63.5 131.5zM258 1315q0 29 20.5 50t49.5 21q33 0 90 -47l321 -254h-75l-277 119q-2 0 -25.5 10.5t-30.5 13.5t-25.5 13t-26 19.5t-14.5 24t-7 30.5zM260 203q0 -59 36 -103.5t95 -44.5q104 0 225 117v334q-14 -6 -67 -30.5t-81 -39t-74 -43t-70.5 -53.5 t-44 -61.5t-19.5 -75.5z" />
<glyph unicode="&#xe1;" horiz-adv-x="983" d="M70 154q0 25 6 49t14 42.5t26.5 39t29 33t38 31t38.5 26.5t45 24.5t43 20.5t45 20.5t40 18.5l203 98q16 8 16 59q0 123 -32.5 180.5t-147.5 57.5q-61 0 -96 -6t-64.5 -33t-31.5 -78q-4 -37 -24.5 -63.5t-57.5 -26.5q-35 0 -56.5 20.5t-21.5 53.5q0 53 43 91t108.5 56.5 t121 25.5t104.5 7q178 0 255 -62.5t77 -232.5v-338v-20v-27q0 -8 1 -27.5t3 -30.5t5 -28.5t8 -28t12 -20.5t18.5 -15t23.5 -5t21.5 3t19.5 12t14.5 14t15.5 19.5t13 16.5l39 -20q-27 -55 -79 -96.5t-105 -41.5q-61 0 -110.5 42t-65.5 104q-180 -145 -342 -146 q-86 0 -149.5 49.5t-63.5 131.5zM260 203q0 -59 36 -103.5t95 -44.5q104 0 225 117v334q-14 -6 -67 -30.5t-81 -39t-74 -43t-70.5 -53.5t-44 -61.5t-19.5 -75.5zM332 1085l320 254q57 47 90 47q31 0 51 -21.5t20 -49.5q0 -18 -7 -33.5t-25.5 -29t-28.5 -18.5t-38 -16.5 t-32 -13.5l-274 -119h-76z" />
<glyph unicode="&#xe2;" horiz-adv-x="983" d="M70 154q0 25 6 49t14 42.5t26.5 39t29 33t38 31t38.5 26.5t45 24.5t43 20.5t45 20.5t40 18.5l203 98q16 8 16 59q0 123 -32.5 180.5t-147.5 57.5q-61 0 -96 -6t-64.5 -33t-31.5 -78q-4 -37 -24.5 -63.5t-57.5 -26.5q-35 0 -56.5 20.5t-21.5 53.5q0 53 43 91t108.5 56.5 t121 25.5t104.5 7q178 0 255 -62.5t77 -232.5v-338v-20v-27q0 -8 1 -27.5t3 -30.5t5 -28.5t8 -28t12 -20.5t18.5 -15t23.5 -5t21.5 3t19.5 12t14.5 14t15.5 19.5t13 16.5l39 -20q-27 -55 -79 -96.5t-105 -41.5q-61 0 -110.5 42t-65.5 104q-180 -145 -342 -146 q-86 0 -149.5 49.5t-63.5 131.5zM197 1085l233 301h113l225 -301h-63l-220 164l-227 -164h-61zM260 203q0 -59 36 -103.5t95 -44.5q104 0 225 117v334q-14 -6 -67 -30.5t-81 -39t-74 -43t-70.5 -53.5t-44 -61.5t-19.5 -75.5z" />
<glyph unicode="&#xe3;" horiz-adv-x="983" d="M70 154q0 25 6 49t14 42.5t26.5 39t29 33t38 31t38.5 26.5t45 24.5t43 20.5t45 20.5t40 18.5l203 98q16 8 16 59q0 123 -32.5 180.5t-147.5 57.5q-61 0 -96 -6t-64.5 -33t-31.5 -78q-4 -37 -24.5 -63.5t-57.5 -26.5q-35 0 -56.5 20.5t-21.5 53.5q0 53 43 91t108.5 56.5 t121 25.5t104.5 7q178 0 255 -62.5t77 -232.5v-338v-20v-27q0 -8 1 -27.5t3 -30.5t5 -28.5t8 -28t12 -20.5t18.5 -15t23.5 -5t21.5 3t19.5 12t14.5 14t15.5 19.5t13 16.5l39 -20q-27 -55 -79 -96.5t-105 -41.5q-61 0 -110.5 42t-65.5 104q-180 -145 -342 -146 q-86 0 -149.5 49.5t-63.5 131.5zM197 1180q12 72 64 126t122 54q43 0 143 -41q100 -39 127 -39q51 0 72 72h53q-6 -66 -55 -125q-53 -61 -117 -62q-51 0 -153 43q-94 41 -129 41q-47 0 -72 -69h-55zM260 203q0 -59 36 -103.5t95 -44.5q104 0 225 117v334q-14 -6 -67 -30.5 t-81 -39t-74 -43t-70.5 -53.5t-44 -61.5t-19.5 -75.5z" />
<glyph unicode="&#xe4;" horiz-adv-x="983" d="M70 154q0 25 6 49t14 42.5t26.5 39t29 33t38 31t38.5 26.5t45 24.5t43 20.5t45 20.5t40 18.5l203 98q16 8 16 59q0 123 -32.5 180.5t-147.5 57.5q-61 0 -96 -6t-64.5 -33t-31.5 -78q-4 -37 -24.5 -63.5t-57.5 -26.5q-35 0 -56.5 20.5t-21.5 53.5q0 53 43 91t108.5 56.5 t121 25.5t104.5 7q178 0 255 -62.5t77 -232.5v-338v-20v-27q0 -8 1 -27.5t3 -30.5t5 -28.5t8 -28t12 -20.5t18.5 -15t23.5 -5t21.5 3t19.5 12t14.5 14t15.5 19.5t13 16.5l39 -20q-27 -55 -79 -96.5t-105 -41.5q-61 0 -110.5 42t-65.5 104q-180 -145 -342 -146 q-86 0 -149.5 49.5t-63.5 131.5zM260 203q0 -59 36 -103.5t95 -44.5q104 0 225 117v334q-14 -6 -67 -30.5t-81 -39t-74 -43t-70.5 -53.5t-44 -61.5t-19.5 -75.5zM237 1245q0 43 31 72t74 29q41 0 72.5 -30t31.5 -71q0 -45 -29.5 -76.5t-74.5 -31.5t-75 31.5t-30 76.5z M518 1245q0 41 31.5 71t72.5 30t73 -30t32 -71q0 -45 -30 -76.5t-75 -31.5t-74.5 31.5t-29.5 76.5z" />
<glyph unicode="&#xe5;" horiz-adv-x="983" d="M70 154q0 25 6 49t14 42.5t26.5 39t29 33t38 31t38.5 26.5t45 24.5t43 20.5t45 20.5t40 18.5l203 98q16 8 16 59q0 123 -32.5 180.5t-147.5 57.5q-61 0 -96 -6t-64.5 -33t-31.5 -78q-4 -37 -24.5 -63.5t-57.5 -26.5q-35 0 -56.5 20.5t-21.5 53.5q0 53 43 91t108.5 56.5 t121 25.5t104.5 7q178 0 255 -62.5t77 -232.5v-338v-20v-27q0 -8 1 -27.5t3 -30.5t5 -28.5t8 -28t12 -20.5t18.5 -15t23.5 -5t21.5 3t19.5 12t14.5 14t15.5 19.5t13 16.5l39 -20q-27 -55 -79 -96.5t-105 -41.5q-61 0 -110.5 42t-65.5 104q-180 -145 -342 -146 q-86 0 -149.5 49.5t-63.5 131.5zM260 203q0 -59 36 -103.5t95 -44.5q104 0 225 117v334q-14 -6 -67 -30.5t-81 -39t-74 -43t-70.5 -53.5t-44 -61.5t-19.5 -75.5zM299 1261.5q0 75.5 56.5 130t132.5 54.5q78 0 136 -52.5t58 -127.5q0 -82 -55 -136.5t-137 -54.5 q-78 0 -134.5 55.5t-56.5 131zM369 1262q0 -53 37 -90t88 -37q49 0 84 37.5t35 87.5q0 53 -36 91t-89 38q-51 0 -85 -38t-34 -89z" />
<glyph unicode="&#xe6;" horiz-adv-x="1474" d="M70 158q0 49 27.5 94t65.5 76.5t98.5 64.5t103.5 50.5t104 40t80 30.5q43 16 53 32.5t10 117.5q0 102 -46 146t-148 44q-61 0 -96 -20.5t-47.5 -50t-20.5 -58.5t-26.5 -49.5t-53.5 -20.5q-31 0 -53.5 20.5t-22.5 51.5q0 53 37 90t96.5 53.5t109.5 23.5t97 7 q229 0 285 -119q137 119 319 119q143 0 251 -90t108 -233q0 -18 -12.5 -24.5t-26.5 -2.5t-29 0h-559q-6 -78 7.5 -162t46 -165t101 -133t161.5 -52q137 0 243 139l41 -33q-57 -78 -145 -125t-180 -47q-111 0 -218.5 49.5t-160.5 135.5q-98 -90 -187.5 -137.5t-197.5 -47.5 q-92 0 -153.5 47.5t-61.5 137.5zM260 197q0 -59 36 -100.5t95 -41.5q100 0 260 140q-51 113 -51 290q-14 -6 -65.5 -28.5t-78 -34.5t-70.5 -39t-66.5 -50.5t-41 -60t-18.5 -75.5zM782 606h340h17q25 0 34 1t20 6t14 18.5t3 38.5q0 80 -53 132t-133 52q-102 0 -167 -72 t-75 -176z" />
<glyph unicode="&#xe7;" horiz-adv-x="942" d="M82 408q0 213 143.5 353t358.5 140q51 0 105 -9t107.5 -43t53.5 -85q0 -29 -20.5 -52.5t-47.5 -23.5q-61 0 -90 80q-18 47 -39.5 62.5t-77.5 15.5q-104 0 -171.5 -66.5t-92 -152.5t-24.5 -187q0 -80 14 -146.5t46 -127t91.5 -94t143.5 -33.5q147 0 258 129l43 -37 q-117 -147 -338 -158l-29 -75q70 2 127 -29t57 -96q0 -59 -47 -92t-110 -33q-53 0 -111.5 28.5t-58.5 75.5q0 16 11 28.5t26 12.5q31 0 47 -47q18 -53 71 -53q37 0 60.5 19.5t23.5 54.5q0 88 -123 88q-8 0 -24 -1t-25 -1l47 122q-178 10 -291.5 131.5t-113.5 301.5z" />
<glyph unicode="&#xe8;" horiz-adv-x="1024" d="M82 414q0 197 133 342t328 145q162 0 276.5 -88t114.5 -246q0 -8 -3 -12t-9.5 -5t-11.5 -2t-14 0t-13 1h-588l-8 -98q0 -162 84 -287t237 -125q145 0 258 151l43 -43q-141 -174 -364 -174q-195 0 -329 124t-134 317zM279 1315q0 29 20 50t49 21q33 0 90 -47l322 -254h-76 l-276 119q-2 0 -26 10.5t-31 13.5t-25.5 13t-25.5 19.5t-14 24t-7 30.5zM305 604h338l21 -2q23 0 29.5 1t22 5t21.5 13.5t6 23.5q0 96 -51 152.5t-147 56.5q-193 0 -240 -250z" />
<glyph unicode="&#xe9;" horiz-adv-x="1024" d="M82 414q0 197 133 342t328 145q162 0 276.5 -88t114.5 -246q0 -8 -3 -12t-9.5 -5t-11.5 -2t-14 0t-13 1h-588l-8 -98q0 -162 84 -287t237 -125q145 0 258 151l43 -43q-141 -174 -364 -174q-195 0 -329 124t-134 317zM305 604h338l21 -2q23 0 29.5 1t22 5t21.5 13.5 t6 23.5q0 96 -51 152.5t-147 56.5q-193 0 -240 -250zM352 1085l320 254q57 47 90 47q31 0 51 -21.5t20 -49.5q0 -18 -7 -33.5t-25.5 -29t-28.5 -18.5t-38 -16.5t-32 -13.5l-274 -119h-76z" />
<glyph unicode="&#xea;" horiz-adv-x="1024" d="M82 414q0 197 133 342t328 145q162 0 276.5 -88t114.5 -246q0 -8 -3 -12t-9.5 -5t-11.5 -2t-14 0t-13 1h-588l-8 -98q0 -162 84 -287t237 -125q145 0 258 151l43 -43q-141 -174 -364 -174q-195 0 -329 124t-134 317zM217 1085l234 301h112l225 -301h-63l-219 164 l-227 -164h-62zM305 604h338l21 -2q23 0 29.5 1t22 5t21.5 13.5t6 23.5q0 96 -51 152.5t-147 56.5q-193 0 -240 -250z" />
<glyph unicode="&#xeb;" horiz-adv-x="1024" d="M82 414q0 197 133 342t328 145q162 0 276.5 -88t114.5 -246q0 -8 -3 -12t-9.5 -5t-11.5 -2t-14 0t-13 1h-588l-8 -98q0 -162 84 -287t237 -125q145 0 258 151l43 -43q-141 -174 -364 -174q-195 0 -329 124t-134 317zM305 604h338l21 -2q23 0 29.5 1t22 5t21.5 13.5 t6 23.5q0 96 -51 152.5t-147 56.5q-193 0 -240 -250zM258 1245q0 43 31 72t74 29q41 0 72.5 -30t31.5 -71q0 -45 -29.5 -76.5t-74.5 -31.5t-75 31.5t-30 76.5zM539 1245q0 41 31.5 71t72.5 30t73 -30t32 -71q0 -45 -30 -76.5t-75 -31.5t-74.5 31.5t-29.5 76.5z" />
<glyph unicode="&#xec;" horiz-adv-x="614" d="M72 797v41l323 63v-657v-53q0 -36 1 -47t6.5 -34.5t13.5 -30.5t24.5 -19.5t40 -16.5t58.5 -6v-41q-33 0 -107 3t-113 5q-41 0 -120.5 -4t-118.5 -4v41q98 6 119.5 37.5t21.5 126.5v30v293q0 197 -8 228q-14 51 -141 45zM74 1315q0 29 20.5 50t48.5 21q33 0 90 -47 l322 -254h-76l-276 119q-2 0 -25.5 10.5t-31 13.5t-26 13t-25.5 19.5t-14 24t-7 30.5z" />
<glyph unicode="&#xed;" horiz-adv-x="614" d="M72 797v41l323 63v-657v-53q0 -36 1 -47t6.5 -34.5t13.5 -30.5t24.5 -19.5t40 -16.5t58.5 -6v-41q-33 0 -107 3t-113 5q-41 0 -120.5 -4t-118.5 -4v41q98 6 119.5 37.5t21.5 126.5v30v293q0 197 -8 228q-14 51 -141 45zM147 1085l320 254q57 47 90 47q31 0 51 -21.5 t20 -49.5q0 -18 -7 -33.5t-25.5 -29t-28.5 -18.5t-38 -16.5t-32 -13.5l-274 -119h-76z" />
<glyph unicode="&#xee;" horiz-adv-x="614" d="M12 1085l234 301h112l226 -301h-64l-219 164l-227 -164h-62zM72 797v41l323 63v-657v-53q0 -36 1 -47t6.5 -34.5t13.5 -30.5t24.5 -19.5t40 -16.5t58.5 -6v-41q-33 0 -107 3t-113 5q-41 0 -120.5 -4t-118.5 -4v41q98 6 119.5 37.5t21.5 126.5v30v293q0 197 -8 228 q-14 51 -141 45z" />
<glyph unicode="&#xef;" horiz-adv-x="614" d="M72 797v41l323 63v-657v-53q0 -36 1 -47t6.5 -34.5t13.5 -30.5t24.5 -19.5t40 -16.5t58.5 -6v-41q-33 0 -107 3t-113 5q-41 0 -120.5 -4t-118.5 -4v41q98 6 119.5 37.5t21.5 126.5v30v293q0 197 -8 228q-14 51 -141 45zM53 1245q0 43 31 72t74 29q41 0 72.5 -30t31.5 -71 q0 -45 -29.5 -76.5t-74.5 -31.5t-75 31.5t-30 76.5zM334 1245q0 41 31.5 71t72.5 30t73 -30t32 -71q0 -45 -30 -76.5t-75 -31.5t-74.5 31.5t-29.5 76.5z" />
<glyph unicode="&#xf0;" horiz-adv-x="1146" d="M82 449q0 190 149.5 321t341.5 131q94 0 164 -43t105 -102l4 4q-70 287 -228 436l-239 -139l-70 55l244 141q-98 76 -250 129l37 52q168 -45 305 -127l250 143l70 -55l-242 -140q344 -248 344 -720q0 -109 -26.5 -205.5t-82 -178t-154.5 -130t-231 -48.5 q-203 0 -347 137.5t-144 338.5zM287 440q0 -80 13 -148.5t44 -133t92.5 -101.5t147.5 -37q104 0 169.5 67t87 152t21.5 189q0 82 -13 151.5t-44 134t-92.5 102.5t-147.5 38q-80 0 -137 -39t-86 -102.5t-42 -131t-13 -141.5z" />
<glyph unicode="&#xf1;" horiz-adv-x="1228" d="M68 797v41q59 6 151 31.5t131 31.5l27 -186h4q104 186 328 186q305 0 305 -283v-374v-38v-35q0 -9 1 -29.5t3 -26.5t7 -20.5t12 -19.5t18.5 -14.5t26 -12.5t33 -6t42.5 -5v-41q-37 0 -111.5 4t-111.5 4q-41 0 -119 -4t-119 -4v41q53 4 83 12t43.5 34t15.5 48.5t2 75.5v24 v263v64q0 15 -3 63.5t-9.5 68t-20.5 54t-33.5 50t-50.5 29t-72 13.5q-117 0 -189.5 -80t-72.5 -195v-317v-46v-43q0 -7 3 -32t8.5 -30t15.5 -20.5t25.5 -19.5t38 -9t52.5 -7v-41q-37 0 -111.5 4t-111.5 4q-39 0 -118.5 -4t-118.5 -4v41q53 4 82.5 12t43 34t15.5 48.5t2 75.5 v24v252q0 201 -10 248q-2 14 -8.5 24.5t-10.5 17.5t-15 11t-16 7.5t-20.5 4.5t-19.5 1h-24h-23zM319 1180q12 72 64.5 126t122.5 54q43 0 143 -41q100 -39 127 -39q51 0 72 72h53q-6 -66 -55 -125q-53 -61 -117 -62q-51 0 -154 43q-94 41 -129 41q-47 0 -72 -69h-55z" />
<glyph unicode="&#xf2;" horiz-adv-x="1146" d="M82 449q0 190 149.5 321t341.5 131q195 0 344.5 -133t149.5 -328q0 -203 -144.5 -335t-349.5 -132q-203 0 -347 137.5t-144 338.5zM287 440q0 -80 13 -148.5t44 -133t92.5 -101.5t147.5 -37q104 0 169.5 67t87 152t21.5 189q0 82 -13 151.5t-44 134t-92.5 102.5 t-147.5 38q-80 0 -137 -39t-86 -102.5t-42 -131t-13 -141.5zM340 1315q0 29 20.5 50t49.5 21q33 0 90 -47l321 -254h-76l-276 119q-2 0 -25.5 10.5t-30.5 13.5t-25.5 13t-26 19.5t-14.5 24t-7 30.5z" />
<glyph unicode="&#xf3;" horiz-adv-x="1146" d="M82 449q0 190 149.5 321t341.5 131q195 0 344.5 -133t149.5 -328q0 -203 -144.5 -335t-349.5 -132q-203 0 -347 137.5t-144 338.5zM287 440q0 -80 13 -148.5t44 -133t92.5 -101.5t147.5 -37q104 0 169.5 67t87 152t21.5 189q0 82 -13 151.5t-44 134t-92.5 102.5 t-147.5 38q-80 0 -137 -39t-86 -102.5t-42 -131t-13 -141.5zM414 1085l320 254q57 47 90 47q31 0 51 -21.5t20 -49.5q0 -18 -7 -33.5t-25.5 -29t-28.5 -18.5t-38 -16.5t-32 -13.5l-274 -119h-76z" />
<glyph unicode="&#xf4;" horiz-adv-x="1146" d="M82 449q0 190 149.5 321t341.5 131q195 0 344.5 -133t149.5 -328q0 -203 -144.5 -335t-349.5 -132q-203 0 -347 137.5t-144 338.5zM279 1085l233 301h113l225 -301h-64l-219 164l-227 -164h-61zM287 440q0 -80 13 -148.5t44 -133t92.5 -101.5t147.5 -37q104 0 169.5 67 t87 152t21.5 189q0 82 -13 151.5t-44 134t-92.5 102.5t-147.5 38q-80 0 -137 -39t-86 -102.5t-42 -131t-13 -141.5z" />
<glyph unicode="&#xf5;" horiz-adv-x="1146" d="M82 449q0 190 149.5 321t341.5 131q195 0 344.5 -133t149.5 -328q0 -203 -144.5 -335t-349.5 -132q-203 0 -347 137.5t-144 338.5zM287 440q0 -80 13 -148.5t44 -133t92.5 -101.5t147.5 -37q104 0 169.5 67t87 152t21.5 189q0 82 -13 151.5t-44 134t-92.5 102.5 t-147.5 38q-80 0 -137 -39t-86 -102.5t-42 -131t-13 -141.5zM278 1180q12 72 64.5 126t122.5 54q43 0 143 -41q100 -39 127 -39q51 0 72 72h53q-6 -66 -55 -125q-53 -61 -117 -62q-51 0 -154 43q-94 41 -129 41q-47 0 -72 -69h-55z" />
<glyph unicode="&#xf6;" horiz-adv-x="1146" d="M82 449q0 190 149.5 321t341.5 131q195 0 344.5 -133t149.5 -328q0 -203 -144.5 -335t-349.5 -132q-203 0 -347 137.5t-144 338.5zM287 440q0 -80 13 -148.5t44 -133t92.5 -101.5t147.5 -37q104 0 169.5 67t87 152t21.5 189q0 82 -13 151.5t-44 134t-92.5 102.5 t-147.5 38q-80 0 -137 -39t-86 -102.5t-42 -131t-13 -141.5zM319 1245q0 43 31 72t74 29q41 0 72.5 -30t31.5 -71q0 -45 -29.5 -76.5t-74.5 -31.5t-75 31.5t-30 76.5zM600 1245q0 41 31.5 71t72.5 30t73 -30t32 -71q0 -45 -30 -76.5t-75 -31.5t-74.5 31.5t-29.5 76.5z" />
<glyph unicode="&#xf7;" d="M68 473v94h929v-94h-929zM430 115q0 43 31 71.5t74 28.5q41 0 72.5 -29.5t31.5 -70.5q0 -45 -29.5 -77t-75 -32t-75 32t-29.5 77zM430 934q0 43 31 71.5t74 28.5q41 0 72.5 -29.5t31.5 -70.5q0 -45 -29.5 -77t-75 -32t-75 32t-29.5 77z" />
<glyph unicode="&#xf8;" horiz-adv-x="1146" d="M82 436q0 197 145.5 331t343.5 134q129 0 230 -53l117 170h88l-142 -209q90 -59 143.5 -158.5t53.5 -208.5q0 -205 -144.5 -337t-349.5 -132q-137 0 -237 56l-129 -195h-92l161 232q-90 57 -139 158t-49 212zM287 444q0 -180 49 -278l418 610q-66 78 -172 78 q-84 0 -144.5 -36t-91.5 -97.5t-45 -130t-14 -146.5zM377 96q68 -76 194 -76q106 0 173 67t89.5 153t22.5 190q0 197 -57 285z" />
<glyph unicode="&#xf9;" horiz-adv-x="1187" d="M39 844v39q29 -2 85 -4t85 -5q27 2 81 5.5t79 3.5v-559q0 -57 5 -97.5t19.5 -88.5t51 -73.5t94.5 -25.5q119 0 199.5 91t80.5 212v274q0 131 -12 158q-23 51 -143 70v41q29 -2 85 -5t85 -6q27 2 80 5.5t79 5.5v-660q0 -39 2 -62.5t20.5 -49t53.5 -25.5q10 0 23.5 1t30 3 t24.5 2v-47l-285 -74l-43 193q-57 -86 -149 -139.5t-193 -53.5q-283 0 -282 293v350q0 131 -13 158q-22 52 -143 70zM360 1315q0 29 20.5 50t49.5 21q33 0 90 -47l322 -254h-76l-277 119q-2 0 -25.5 10.5t-30.5 13.5t-25.5 13t-25.5 19.5t-14.5 24t-7.5 30.5z" />
<glyph unicode="&#xfa;" horiz-adv-x="1187" d="M39 844v39q29 -2 85 -4t85 -5q27 2 81 5.5t79 3.5v-559q0 -57 5 -97.5t19.5 -88.5t51 -73.5t94.5 -25.5q119 0 199.5 91t80.5 212v274q0 131 -12 158q-23 51 -143 70v41q29 -2 85 -5t85 -6q27 2 80 5.5t79 5.5v-660q0 -39 2 -62.5t20.5 -49t53.5 -25.5q10 0 23.5 1t30 3 t24.5 2v-47l-285 -74l-43 193q-57 -86 -149 -139.5t-193 -53.5q-283 0 -282 293v350q0 131 -13 158q-22 52 -143 70zM434 1085l320 254q57 47 90 47q31 0 51 -21.5t20 -49.5q0 -18 -7 -33.5t-25.5 -29t-28.5 -18.5t-38 -16.5t-32 -13.5l-274 -119h-76z" />
<glyph unicode="&#xfb;" horiz-adv-x="1187" d="M39 844v39q29 -2 85 -4t85 -5q27 2 81 5.5t79 3.5v-559q0 -57 5 -97.5t19.5 -88.5t51 -73.5t94.5 -25.5q119 0 199.5 91t80.5 212v274q0 131 -12 158q-23 51 -143 70v41q29 -2 85 -5t85 -6q27 2 80 5.5t79 5.5v-660q0 -39 2 -62.5t20.5 -49t53.5 -25.5q10 0 23.5 1t30 3 t24.5 2v-47l-285 -74l-43 193q-57 -86 -149 -139.5t-193 -53.5q-283 0 -282 293v350q0 131 -13 158q-22 52 -143 70zM299 1085l233 301h113l225 -301h-63l-219 164l-228 -164h-61z" />
<glyph unicode="&#xfc;" horiz-adv-x="1187" d="M39 844v39q29 -2 85 -4t85 -5q27 2 81 5.5t79 3.5v-559q0 -57 5 -97.5t19.5 -88.5t51 -73.5t94.5 -25.5q119 0 199.5 91t80.5 212v274q0 131 -12 158q-23 51 -143 70v41q29 -2 85 -5t85 -6q27 2 80 5.5t79 5.5v-660q0 -39 2 -62.5t20.5 -49t53.5 -25.5q10 0 23.5 1t30 3 t24.5 2v-47l-285 -74l-43 193q-57 -86 -149 -139.5t-193 -53.5q-283 0 -282 293v350q0 131 -13 158q-22 52 -143 70zM340 1245q0 43 31 72t74 29q41 0 72.5 -30t31.5 -71q0 -45 -29.5 -76.5t-74.5 -31.5t-75 31.5t-30 76.5zM621 1245q0 41 31.5 71t72.5 30t73 -30t32 -71 q0 -45 -30 -76.5t-75 -31.5t-74.5 31.5t-29.5 76.5z" />
<glyph unicode="&#xfd;" horiz-adv-x="860" d="M-31 842v41q35 -2 104.5 -4t104.5 -5q39 2 116 4.5t116 4.5v-41q-2 0 -41 -6.5t-61.5 -21.5t-22.5 -44q0 -39 84 -246l131 -313l153 369q57 137 58 190q0 66 -113 72v41q27 -2 79 -4t79 -5q23 2 67.5 4.5t67.5 4.5v-41q-31 0 -51.5 -13.5t-27.5 -24.5t-21.5 -46 t-20.5 -47l-27 -60l-426 -983q-68 -160 -118 -200q-27 -20 -54 -21q-7 -2 -13 -2q-18 0 -31 12q-17 16 -17 39q0 41 28.5 64.5t69.5 43t58 44.5q33 47 92 188l78 174l-289 674q-37 88 -60 115q-14 14 -44 28.5t-48 14.5zM270 1085l320 254q57 47 90 47q31 0 51 -21.5 t20 -49.5q0 -18 -7 -33.5t-25.5 -29t-28.5 -18.5t-38 -16.5t-32 -13.5l-274 -119h-76z" />
<glyph unicode="&#xfe;" horiz-adv-x="1187" d="M51 1247v41q74 10 322 64v-592h4q106 141 278 141q201 0 328 -133t127 -336q0 -190 -126 -324.5t-316 -134.5q-166 0 -295 117v-397v-31q0 -57 2 -80.5t16.5 -50.5t47 -36t91.5 -11v-41q-39 0 -114.5 4t-112.5 4q-41 0 -123 -4t-123 -4v41q53 4 82 12t42.5 34t15.5 47.5 t2 74.5v29v1253q0 201 -11 248q-2 14 -8 24.5l-10 17.5t-15.5 11t-16.5 7t-20.5 4t-19.5 1h-23h-24zM373 344q0 -170 45 -223q70 -82 200 -82q104 0 172 63.5t91.5 148.5t23.5 187q0 76 -13 141.5t-44 126t-88.5 95.5t-136.5 35q-139 0 -207 -117q-43 -74 -43 -230v-145z " />
<glyph unicode="&#xff;" horiz-adv-x="860" d="M-31 842v41q35 -2 104.5 -4t104.5 -5q39 2 116 4.5t116 4.5v-41q-2 0 -41 -6.5t-61.5 -21.5t-22.5 -44q0 -39 84 -246l131 -313l153 369q57 137 58 190q0 66 -113 72v41q27 -2 79 -4t79 -5q23 2 67.5 4.5t67.5 4.5v-41q-31 0 -51.5 -13.5t-27.5 -24.5t-21.5 -46 t-20.5 -47l-27 -60l-426 -983q-68 -160 -118 -200q-27 -20 -54 -21q-27 -6 -44 10.5t-17 38.5q0 41 28.5 64.5t69.5 43t58 44.5q33 47 92 188l78 174l-289 674q-37 88 -60 115q-14 14 -44 28.5t-48 14.5zM217 1245q0 43 31 72t74 29q41 0 72.5 -30t31.5 -71 q0 -45 -29.5 -76.5t-75 -31.5t-75 31.5t-29.5 76.5zM498 1245q0 41 31.5 71t72.5 30t73 -30t32 -71q0 -45 -30 -76.5t-75 -31.5t-74.5 31.5t-29.5 76.5z" />
<glyph unicode="&#x131;" horiz-adv-x="614" d="M72 797v41l323 63v-657v-53q0 -36 1 -47t6.5 -34.5t13.5 -30.5t24.5 -19.5t40 -16.5t58.5 -6v-41q-33 0 -107 3t-113 5q-41 0 -120.5 -4t-118.5 -4v41q98 6 119.5 37.5t21.5 126.5v30v293q0 197 -8 228q-14 51 -141 45z" />
<glyph unicode="&#x152;" horiz-adv-x="2048" d="M86 657q0 311 196.5 503t510.5 192h155q55 0 170 -4.5t170 -4.5q80 0 278.5 3.5t321.5 5.5v-301h-47q-12 72 -33.5 117.5t-46 71.5t-74 38t-90.5 15t-118 3h-148q-41 0 -51 -10q-2 -4 -2 -72v-491q193 -8 258.5 56.5t75.5 195.5h47q-4 -188 -8 -279q4 -82 8 -254h-47 q-20 150 -92 188t-242 38v-336q0 -160 37 -207q63 -78 262 -74q92 2 147.5 11.5t109.5 36t83 83t39 144.5h47l-18 -330q-131 2 -362.5 5t-334.5 3q-90 0 -269 -4t-269 -4q-291 -8 -477.5 180t-186.5 481zM342 698q0 -139 18.5 -244.5t65.5 -204.5t142.5 -152.5t234.5 -53.5 q55 0 98 12.5t70.5 34t48 51t29 65.5t13.5 77t5 83v85v47v497q-6 160 -60.5 235t-207.5 75q-457 -1 -457 -607z" />
<glyph unicode="&#x153;" horiz-adv-x="1720" d="M82 440q0 195 138 328t335 133q106 0 206.5 -40t158.5 -118q141 158 350 158q158 0 267.5 -87t109.5 -236q0 -29 -39 -29h-588q-2 -20 -5 -54t-3 -49q0 -92 32.5 -182t108.5 -157.5t176 -67.5q53 0 101.5 21.5t72 42t74.5 69.5l41 -33q-135 -166 -348 -166 q-215 0 -350 166q-143 -166 -361 -166q-205 0 -341 132t-136 335zM287 428q0 -408 270 -408q70 0 118 28t73.5 66t39 101.5t16.5 110.5t3 116q0 80 -8 140.5t-31 128t-75 105.5t-132 38q-274 0 -274 -426zM1022 604h362h15h13h10q7 0 9.5 1l7.5 3t7 5t4 7.5t3 9.5t2 12t1 17 q0 90 -51 142.5t-143 52.5q-98 0 -163 -75t-77 -175z" />
<glyph unicode="&#x178;" d="M-137 1305v47q47 0 139 -4.5t139 -4.5t143.5 4.5t145.5 4.5v-47q-154 0 -154 -66q0 -45 54 -143l266 -494l131 209q203 338 203 408q0 12 -3 22t-10.5 18.5t-12.5 14.5t-17.5 10t-19.5 7t-22.5 5t-21.5 3t-21.5 3.5t-19.5 2.5v47q37 0 110 -4.5t109 -4.5q35 0 100.5 4.5 t100.5 4.5v-47q-55 -4 -98 -35t-61.5 -57.5t-57.5 -90.5l-354 -585v-273q0 -147 27.5 -178t175.5 -43v-47q-51 0 -153.5 4t-154 4t-156 -4t-157.5 -4v47q147 12 177 44t30 177v254l-189 326l-36 69q-37 72 -71 132.5t-76 129t-66 93.5q-16 18 -32 24t-46.5 8.5t-40.5 4.5z M426 1714q0 43 30.5 72t73.5 29q41 0 73 -30t32 -71q0 -45 -30 -76.5t-75 -31.5t-74.5 31.5t-29.5 76.5zM707 1714q0 41 31.5 71t72.5 30t72.5 -30t31.5 -71q0 -45 -29.5 -76.5t-74.5 -31.5t-74.5 31.5t-29.5 76.5z" />
<glyph unicode="&#x192;" d="M-80 -150q0 39 25.5 66t64.5 27q35 0 55.5 -22.5t27.5 -51.5t23.5 -51.5t43.5 -22.5q33 0 61.5 22.5t51 69.5t38 89t29.5 111t20.5 102.5t15.5 98t9 66.5l96 637h-186l16 56h181l20 106q16 74 24.5 107.5t31 83t59.5 96.5q137 172 325 172q55 0 102.5 -29t47.5 -80 q0 -37 -26.5 -62.5t-63.5 -25.5q-33 0 -56.5 20.5t-36 45t-29 45t-36.5 20.5q-80 0 -117 -116q-29 -84 -61 -281l-19 -102h224l-15 -56h-213l-61 -377q-70 -420 -148 -585q-66 -137 -142.5 -213t-201.5 -76q-70 0 -125 25.5t-55 84.5z" />
<glyph unicode="&#x2c6;" horiz-adv-x="860" d="M135 1085l234 301h112l226 -301h-64l-219 164l-227 -164h-62z" />
<glyph unicode="&#x2da;" horiz-adv-x="655" d="M135 1261.5q0 75.5 56.5 130t132.5 54.5q78 0 136 -52.5t58 -127.5q0 -82 -55 -136.5t-137 -54.5q-78 0 -134.5 55.5t-56.5 131zM205 1262q0 -53 37 -90t88 -37q49 0 84 37.5t35 87.5q0 53 -36 91t-89 38q-51 0 -85 -38t-34 -89z" />
<glyph unicode="&#x2dc;" horiz-adv-x="860" d="M135 1180q12 72 64.5 126t122.5 54q43 0 143 -41q100 -39 127 -39q51 0 72 72h53q-6 -66 -55 -125q-53 -61 -117 -62q-51 0 -154 43q-94 41 -129 41q-47 0 -72 -69h-55z" />
<glyph unicode="&#x2000;" horiz-adv-x="1024" />
<glyph unicode="&#x2001;" horiz-adv-x="2048" />
<glyph unicode="&#x2002;" horiz-adv-x="1024" />
<glyph unicode="&#x2003;" horiz-adv-x="2048" />
<glyph unicode="&#x2004;" horiz-adv-x="681" />
<glyph unicode="&#x2005;" horiz-adv-x="512" />
<glyph unicode="&#x2006;" horiz-adv-x="339" />
<glyph unicode="&#x2007;" />
<glyph unicode="&#x2008;" horiz-adv-x="532" />
<glyph unicode="&#x2009;" horiz-adv-x="204" />
<glyph unicode="&#x200a;" horiz-adv-x="20" />
<glyph unicode="&#x200b;" horiz-adv-x="0" />
<glyph unicode="&#x200c;" horiz-adv-x="0" />
<glyph unicode="&#x200d;" horiz-adv-x="0" />
<glyph unicode="&#x200e;" horiz-adv-x="681" />
<glyph unicode="&#x200f;" horiz-adv-x="681" />
<glyph unicode="&#x2010;" horiz-adv-x="819" d="M205 512v205h409v-205h-409z" />
<glyph unicode="&#x2011;" horiz-adv-x="819" d="M205 512v205h409v-205h-409z" />
<glyph unicode="&#x2012;" d="M205 512v205h655v-205h-655z" />
<glyph unicode="&#x2013;" horiz-adv-x="1024" d="M0 391v137h1024v-137h-1024z" />
<glyph unicode="&#x2014;" horiz-adv-x="2048" d="M0 391v137h2048v-137h-2048z" />
<glyph unicode="&#x2015;" horiz-adv-x="4096" d="M205 512v205h3686v-205h-3686z" />
<glyph unicode="&#x2016;" d="M731 -512v2048h137v-2048h-137zM199 -512v2048h137v-2048h-137z" />
<glyph unicode="&#x2018;" horiz-adv-x="614" d="M180 1083q0 106 52.5 175t156.5 139l27 -35q-59 -51 -86 -79t-47.5 -77t-18.5 -112q33 27 68 26q45 0 74.5 -32.5t29.5 -77.5t-34.5 -76t-82.5 -31q-63 0 -101 57t-38 123z" />
<glyph unicode="&#x2019;" horiz-adv-x="614" d="M180 1290q0 45 35 76t82 31q63 0 101 -57.5t38 -122.5q0 -106 -52 -175t-157 -139l-26 35q59 51 85.5 78.5t47 77t18.5 112.5q-33 -27 -67 -26q-45 0 -75 32.5t-30 77.5z" />
<glyph unicode="&#x201a;" horiz-adv-x="614" d="M180 88q0 45 35 76t82 31q63 0 101 -57.5t38 -123.5q0 -106 -52 -174.5t-157 -138.5l-26 35q59 51 85.5 78.5t47 77t18.5 112.5q-33 -27 -67 -27q-45 0 -75 33t-30 78z" />
<glyph unicode="&#x201c;" horiz-adv-x="819" d="M106 1083q0 106 52.5 175t156.5 139l27 -35q-59 -51 -86 -79t-47.5 -77t-18.5 -112q33 27 68 26q45 0 74.5 -32.5t29.5 -77.5t-34.5 -76t-81.5 -31q-63 0 -101.5 57t-38.5 123zM457 1083q0 106 52 175t157 139l26 -35q-59 -51 -85.5 -79t-47 -77t-18.5 -112q33 27 67 26 q45 0 75 -32.5t30 -77.5t-35 -76t-82 -31q-63 0 -101 57t-38 123z" />
<glyph unicode="&#x201d;" horiz-adv-x="819" d="M106 1290q0 45 35 76t82 31q63 0 101 -57.5t38 -122.5q0 -106 -52 -175t-156 -139l-27 35q59 51 86 78.5t47.5 77t18.5 112.5q-33 -27 -68 -26q-45 0 -75 32.5t-30 77.5zM457 1290q0 45 34.5 76t81.5 31q63 0 101.5 -57.5t38.5 -122.5q0 -106 -52.5 -175t-156.5 -139 l-27 35q59 51 86 78.5t47.5 77t18.5 112.5q-33 -27 -68 -26q-45 0 -74.5 32.5t-29.5 77.5z" />
<glyph unicode="&#x201e;" horiz-adv-x="819" d="M106 88q0 45 35 76t82 31q63 0 101 -57.5t38 -123.5q0 -106 -52 -174.5t-156 -138.5l-27 35q59 51 86 78.5t47.5 77t18.5 112.5q-33 -27 -68 -27q-45 0 -75 33t-30 78zM457 88q0 45 34.5 76t81.5 31q63 0 101.5 -57.5t38.5 -123.5q0 -106 -52.5 -174.5t-156.5 -138.5 l-27 35q59 51 86 78.5t47.5 77t18.5 112.5q-33 -27 -68 -27q-45 0 -74.5 33t-29.5 78z" />
<glyph unicode="&#x2020;" horiz-adv-x="1024" d="M66 842q0 27 17 43t44 16q61 0 55 -61q0 -41 13 -41q6 0 12 3t10 9t8 11t9.5 15.5t9.5 16.5q33 47 86 47q51 0 88 -37q43 -43 49 -43q20 0 20 25q0 16 -28.5 93t-28.5 120q0 51 27.5 108.5t27.5 61.5q0 10 -21.5 38.5t-21.5 59.5t21.5 50.5t52.5 19.5q25 0 46.5 -19.5 t21.5 -46.5q0 -29 -22.5 -59.5t-22.5 -40.5t28.5 -65.5t28.5 -106.5q0 -45 -27.5 -121t-27.5 -98q0 -20 12 -21q14 0 59 45q41 37 88 37q49 0 82 -47q35 -55 49 -55q18 0 13 32q-4 70 51 70q66 0 66 -65q0 -39 -29 -67t-70 -28q-35 0 -96 31q-53 31 -90 31q-72 0 -117 -86 l66 -68l-82 -1089h-49q-6 104 -14.5 314t-14.5 314l-59 461l63 68q-16 35 -51 62.5t-70 27.5t-88 -31q-53 -33 -94 -33t-70.5 29t-29.5 70z" />
<glyph unicode="&#x2021;" horiz-adv-x="1024" d="M117 -70q0 39 26.5 61.5t65.5 22.5q35 0 96 -32q61 -35 109 -35q33 0 61 12l-59 66l73 424h48l75 -424l-61 -66q31 -12 61 -12q51 0 109 35q66 33 102.5 32.5t61 -24t24.5 -60.5q0 -31 -15 -52t-44 -21q-31 0 -42 16t-15 49q0 27 -15 27q-10 0 -28 -25q-57 -68 -121 -67 q-20 0 -45 10q0 -84 -23 -119l-10 -15q-6 -9 -9 -15.5t-3 -16.5q0 -6 18 -31q20 -23 21 -49q0 -25 -20.5 -44t-43.5 -19q-27 0 -46 20.5t-19 46.5q0 18 24 51q14 18 14 29q0 6 -24 47q-23 43 -21 115q-25 -10 -45 -10q-63 0 -123 73q-18 18 -28 19q-6 0 -8 -5t-4.5 -20.5 t-2.5 -19.5q-8 -47 -49 -47q-65 -1 -65 73zM117 1024q0 74 65 74q31 0 41 -22.5t12.5 -46t10.5 -23.5q10 0 28 18q59 74 123 74q20 0 45 -11q-2 72 21 115q25 45 24 47q0 10 -14 29q-25 33 -24 51q0 27 19 47.5t46 20.5q23 0 43.5 -19.5t20.5 -44.5q0 -27 -21 -49 q-18 -25 -18 -31q0 -8 3 -15t9 -15.5t10 -16.5q23 -35 23 -119q25 10 45 11q63 0 121 -68q18 -25 28 -24q14 0 15 26q4 33 15 49.5t42 16.5q29 0 44 -21.5t15 -52.5q0 -37 -24.5 -60.5t-61.5 -23.5q-41 0 -102 35q-61 33 -109 33q-31 0 -61 -13l61 -65l-75 -424h-48l-73 424 l59 65q-29 12 -61 13q-43 0 -109 -33q-57 -35 -96 -35t-65.5 22.5t-26.5 61.5z" />
<glyph unicode="&#x2022;" horiz-adv-x="942" d="M119 698.5q0 145.5 105.5 247t252.5 101.5q141 0 243.5 -101.5t102.5 -247t-104.5 -248t-253.5 -102.5q-139 0 -242.5 102.5t-103.5 248z" />
<glyph unicode="&#x2024;" horiz-adv-x="532" d="M150 88q0 47 31.5 83t78.5 36q49 0 86 -32t37 -81t-34 -85t-83 -36q-47 0 -81.5 34t-34.5 81z" />
<glyph unicode="&#x2025;" d="M682 88q0 47 31.5 83t78.5 36q49 0 86 -32t37 -81t-34 -85t-83 -36q-47 0 -81.5 34t-34.5 81zM150 88q0 47 31.5 83t78.5 36q49 0 86 -32t37 -81t-34 -85t-83 -36q-47 0 -81.5 34t-34.5 81z" />
<glyph unicode="&#x2026;" horiz-adv-x="2048" d="M225 88q0 47 32 83t79 36q49 0 86 -32t37 -81t-34 -85t-83 -36q-47 0 -82 34t-35 81zM907 88q0 47 32 83t79 36q49 0 86 -32t37 -81t-34 -85t-83 -36q-47 0 -82 34t-35 81zM1589 88q0 47 32 83t79 36q49 0 86 -32t37 -81t-34 -85t-83 -36q-47 0 -82 34t-35 81z" />
<glyph unicode="&#x202a;" horiz-adv-x="0" />
<glyph unicode="&#x202f;" horiz-adv-x="370" />
<glyph unicode="&#x2030;" horiz-adv-x="2662" d="M190 967q0 170 122 321.5t288 151.5q96 0 196.5 -71t207.5 -71q201 0 376 199h68l-979 -1647h-84l866 1463l-4 4q-133 -74 -239 -74q-63 0 -160 31q23 -61 22 -141q0 -168 -104 -329t-262 -161q-139 0 -226.5 92.5t-87.5 231.5zM344 897q0 -78 42 -136.5t118 -58.5 q94 0 166.5 83t103.5 184.5t31 191.5q0 88 -41 155.5t-123 67.5q-86 0 -157.5 -92t-105.5 -201.5t-34 -193.5zM983 215q0 178 122 329.5t296 151.5q125 0 195.5 -83t70.5 -210q0 -113 -41 -224t-130 -194t-204 -83q-135 0 -222 89t-87 224zM1137 156q0 -80 43 -139.5 t118 -59.5q92 0 165 83t106 186.5t33 191.5t-45.5 155.5t-129.5 67.5t-153.5 -93t-103 -202.5t-33.5 -189.5zM1790 215q0 178 121 329.5t295 151.5q125 0 195.5 -83t70.5 -210q0 -113 -41 -224t-130 -194t-204 -83q-135 0 -221 89t-86 224zM1944 156q0 -80 42 -139.5 t119 -59.5q92 0 164 83t104.5 186.5t32.5 191.5t-44 155.5t-128 67.5t-153.5 -93t-103 -202.5t-33.5 -189.5z" />
<glyph unicode="&#x2032;" horiz-adv-x="450" d="M137 1307q-6 33 22.5 61.5t65.5 28.5t65.5 -29t22.5 -61l-67 -402h-41z" />
<glyph unicode="&#x2033;" horiz-adv-x="901" d="M588 1307q-6 33 22.5 61.5t65.5 28.5t65.5 -29t22.5 -61l-67 -402h-41zM137 1307q-6 33 22.5 61.5t65.5 28.5t65.5 -29t22.5 -61l-67 -402h-41z" />
<glyph unicode="&#x2034;" horiz-adv-x="1351" d="M1038 1307q-6 33 22.5 61.5t65.5 28.5t65.5 -29t22.5 -61l-67 -402h-41zM588 1307q-6 33 22.5 61.5t65.5 28.5t65.5 -29t22.5 -61l-67 -402h-41zM137 1307q-6 33 22.5 61.5t65.5 28.5t65.5 -29t22.5 -61l-67 -402h-41z" />
<glyph unicode="&#x2035;" horiz-adv-x="737" d="M135 1315q0 29 20.5 50t49.5 21q33 0 90 -47l321 -254h-75l-277 119q-2 0 -25.5 10.5t-30.5 13.5t-25.5 13t-25.5 19.5t-14.5 24t-7.5 30.5z" />
<glyph unicode="&#x2036;" horiz-adv-x="1474" d="M872 1315q0 29 20.5 50t49.5 21q33 0 90 -47l321 -254h-75l-277 119q-2 0 -25.5 10.5t-30.5 13.5t-25.5 13t-25.5 19.5t-14.5 24t-7.5 30.5zM135 1315q0 29 20.5 50t49.5 21q33 0 90 -47l321 -254h-75l-277 119q-2 0 -25.5 10.5t-30.5 13.5t-25.5 13t-25.5 19.5t-14.5 24 t-7.5 30.5z" />
<glyph unicode="&#x2037;" horiz-adv-x="2211" d="M1610 1315q0 29 20.5 50t49.5 21q33 0 90 -47l321 -254h-75l-277 119q-2 0 -25.5 10.5t-30.5 13.5t-25.5 13t-25.5 19.5t-14.5 24t-7.5 30.5zM872 1315q0 29 20.5 50t49.5 21q33 0 90 -47l321 -254h-75l-277 119q-2 0 -25.5 10.5t-30.5 13.5t-25.5 13t-25.5 19.5 t-14.5 24t-7.5 30.5zM135 1315q0 29 20.5 50t49.5 21q33 0 90 -47l321 -254h-75l-277 119q-2 0 -25.5 10.5t-30.5 13.5t-25.5 13t-25.5 19.5t-14.5 24t-7.5 30.5z" />
<glyph unicode="&#x2039;" horiz-adv-x="655" d="M147 453q63 53 187 159l121 115q2 2 10 9t15 12.5t14 5.5q16 0 16 -17q0 -39 -113 -170l-94 -114l90 -113q115 -145 115 -176q0 -20 -19 -21q-8 0 -15 5.5t-16 14.5l-12 11z" />
<glyph unicode="&#x203a;" horiz-adv-x="655" d="M145 168q0 39 113 170l94 115l-90 112q-115 145 -115 176q0 20 19 21q8 0 15 -5t17 -15l11 -11l299 -278q-63 -53 -186 -160l-121 -115q-2 -2 -10.5 -9t-15.5 -12t-13 -5q-17 0 -17 16z" />
<glyph unicode="&#x203c;" horiz-adv-x="1310" d="M866 88q0 47 31.5 83t79.5 36q49 0 85.5 -32t36.5 -81t-33.5 -85t-82.5 -36q-47 0 -82 34t-35 81zM870 1241q0 53 29.5 94t81.5 41q55 0 82.5 -43t27.5 -100q0 -74 -30 -213q-61 -305 -56 -698h-49q10 387 -53 698q-33 141 -33 221zM211 88q0 47 31.5 83t79.5 36 q49 0 85.5 -32t36.5 -81t-33.5 -85t-82.5 -36q-47 0 -82 34t-35 81zM215 1241q0 53 29.5 94t81.5 41q55 0 82.5 -43t27.5 -100q0 -74 -30 -213q-61 -305 -56 -698h-49q10 387 -53 698q-33 141 -33 221z" />
<glyph unicode="&#x2044;" horiz-adv-x="245" d="M-420 0l977 1384h111l-979 -1384h-109z" />
<glyph unicode="&#x2215;" horiz-adv-x="245" d="M-420 0l977 1384h111l-979 -1384h-109z" />
<glyph unicode="&#x2047;" horiz-adv-x="1638" d="M915 1284q0 45 35 68.5t82 23.5q190 0 335.5 -153.5t145.5 -345.5q0 -178 -113.5 -259t-297.5 -81v-207h-56v383h125q276 0 277 223q0 113 -68.5 201t-179.5 88q-31 0 -91.5 -11.5t-88.5 -11.5q-41 0 -73 21.5t-32 60.5zM969 88q0 47 31.5 83t78.5 36q49 0 86 -32t37 -81 t-34 -85t-83 -36q-47 0 -81.5 34t-34.5 81zM96 1284q0 45 35 68.5t82 23.5q190 0 335.5 -153.5t145.5 -345.5q0 -178 -113.5 -259t-297.5 -81v-207h-56v383h125q276 0 277 223q0 113 -68.5 201t-179.5 88q-31 0 -91.5 -11.5t-88.5 -11.5q-41 0 -73 21.5t-32 60.5zM150 88 q0 47 31.5 83t78.5 36q49 0 86 -32t37 -81t-34 -85t-83 -36q-47 0 -81.5 34t-34.5 81z" />
<glyph unicode="&#x2048;" horiz-adv-x="1474" d="M1030 88q0 47 31.5 83t79.5 36q49 0 85.5 -32t36.5 -81t-33.5 -85t-82.5 -36q-47 0 -82 34t-35 81zM1034 1241q0 53 29.5 94t81.5 41q55 0 82.5 -43t27.5 -100q0 -74 -30 -213q-61 -305 -56 -698h-49q10 387 -53 698q-33 141 -33 221zM96 1284q0 45 35 68.5t82 23.5 q190 0 335.5 -153.5t145.5 -345.5q0 -178 -113.5 -259t-297.5 -81v-207h-56v383h125q276 0 277 223q0 113 -68.5 201t-179.5 88q-31 0 -91.5 -11.5t-88.5 -11.5q-41 0 -73 21.5t-32 60.5zM150 88q0 47 31.5 83t78.5 36q49 0 86 -32t37 -81t-34 -85t-83 -36q-47 0 -81.5 34 t-34.5 81z" />
<glyph unicode="&#x2049;" horiz-adv-x="1474" d="M751 1284q0 45 35 68.5t82 23.5q190 0 335.5 -153.5t145.5 -345.5q0 -178 -113.5 -259t-297.5 -81v-207h-56v383h125q276 0 277 223q0 113 -68.5 201t-179.5 88q-31 0 -91.5 -11.5t-88.5 -11.5q-41 0 -73 21.5t-32 60.5zM805 88q0 47 31.5 83t78.5 36q49 0 86 -32t37 -81 t-34 -85t-83 -36q-47 0 -81.5 34t-34.5 81zM211 88q0 47 31.5 83t79.5 36q49 0 85.5 -32t36.5 -81t-33.5 -85t-82.5 -36q-47 0 -82 34t-35 81zM215 1241q0 53 29.5 94t81.5 41q55 0 82.5 -43t27.5 -100q0 -74 -30 -213q-61 -305 -56 -698h-49q10 387 -53 698 q-33 141 -33 221z" />
<glyph unicode="&#x2057;" horiz-adv-x="1802" d="M1489 1307q-6 33 22.5 61.5t65.5 28.5t65.5 -29t22.5 -61l-67 -402h-41zM1038 1307q-6 33 22.5 61.5t65.5 28.5t65.5 -29t22.5 -61l-67 -402h-41zM588 1307q-6 33 22.5 61.5t65.5 28.5t65.5 -29t22.5 -61l-67 -402h-41zM137 1307q-6 33 22.5 61.5t65.5 28.5t65.5 -29 t22.5 -61l-67 -402h-41z" />
<glyph unicode="&#x205f;" horiz-adv-x="462" />
<glyph unicode="&#x2060;" horiz-adv-x="0" />
<glyph unicode="&#x20a8;" horiz-adv-x="2088" d="M1418 281h40q66 -260 254 -261q74 0 123 37t49 107q0 20 -6 40.5t-13 35t-23.5 31t-26.5 24.5t-33.5 22.5t-33 19.5t-37 19.5t-33.5 16.5q-59 31 -91 50t-74 54t-61.5 79t-19.5 99q0 104 73.5 175t180.5 71q109 0 198 -51l41 49h25l-4 -256h-41q-16 47 -30.5 77t-39 64.5 t-60.5 52t-81 17.5q-53 0 -92 -29.5t-39 -83.5q0 -31 10 -55t36 -44.5t42 -32t54 -30t48 -24.5q145 -76 187 -113q84 -76 84 -198q0 -121 -89 -196t-212 -75q-133 0 -226 74l-51 -59h-20zM57 -4v47q45 0 72 2t59.5 18.5t42.5 49.5q18 55 19 272v578q0 217 -19 272 q-8 25 -25.5 41t-47 21.5t-47 6.5t-54.5 1v47q57 0 176 -4.5t177 -4.5q43 0 130 4.5t130 4.5q98 0 174 -13.5t146.5 -48.5t109.5 -104.5t39 -171.5q0 -158 -104.5 -248t-266.5 -104l434 -498q53 -61 90 -85t111 -36v-47q-31 0 -92.5 4t-91.5 4q-27 0 -78 -4t-76 -4l-96 119 l-340 422q-8 10 -26.5 32.5t-24 26.5t-17.5 14.5t-24.5 11.5t-30 3t-45.5 2v-242q0 -217 18 -272q8 -25 25.5 -41.5t48.5 -21.5t47 -6t53 -1v-47q-45 0 -141 3t-147 5q-51 0 -154 -4t-154 -4zM461 682q96 0 146 3t117 18.5t99.5 46t56 90t23.5 145.5q0 139 -75.5 223 t-211.5 84q-129 0 -133 -2q-23 -10 -22 -73v-535z" />
<glyph unicode="&#x2122;" horiz-adv-x="2007" d="M70 1200v197h692v-197h-47q0 88 -33 117t-125 29h-84v-646q0 -63 23 -77q18 -12 106 -13v-41h-373v41q88 0 107 13q23 14 22 77v646h-84q-92 0 -124.5 -29t-32.5 -117h-47zM901 569v41q72 2 86 19q12 14 12 49v606q0 55 -8 63.5t-73 8.5v41h223l264 -631l270 631h230v-41 q-2 0 -22.5 1t-29 0t-21.5 -4t-19.5 -11.5t-6.5 -22.5v-612q0 -61 16.5 -77t82.5 -20v-41h-318v41q39 2 53.5 4t30 11.5t18.5 27t3 52.5v610h-4l-308 -746h-16l-309 746h-4v-635q0 -45 23.5 -57.5t78.5 -12.5v-41h-252z" />
<glyph unicode="&#x2260;" d="M39 -317l897 1673h92l-903 -1673h-86zM68 301v94h929v-94h-929zM68 641v94h929v-94h-929z" />
<glyph unicode="&#xe000;" horiz-adv-x="885" d="M0 885h885v-885h-885v885z" />
<glyph unicode="&#xfb01;" horiz-adv-x="1228" d="M59 782v56h148v106q0 223 105.5 327.5t330.5 104.5q51 0 99.5 -6t106.5 -21.5t93 -51t35 -89.5q0 -35 -26.5 -58.5t-63.5 -23.5q-39 0 -56.5 20.5t-24.5 51.5t-18.5 60.5t-49.5 50t-107 20.5q-84 0 -137.5 -26.5t-77 -82t-29.5 -108.5t-6 -139v-135h352q147 0 289 30 v-626v-53q0 -36 1 -46t6 -33.5t13.5 -30.5t24.5 -19.5t39.5 -16.5t58.5 -6v-41q-39 0 -112.5 4t-112.5 4t-119 -4t-119 -4v41q23 2 41.5 5t33 5t24.5 11.5t17 12.5t12.5 17t8.5 18.5t5 26t2 26.5t1 33.5t1 36.5v398v41v33q0 9 -1 25.5t-3 22t-7.5 14.5t-12.5 10t-19 5t-27 4 h-37h-360v-540v-46q0 -34 1 -42.5t3 -32t8 -29.5t16.5 -20.5t26 -18.5t37 -9t51.5 -7v-41q-37 0 -112.5 4t-112.5 4q-39 0 -117 -4t-116 -4v41q98 6 119.5 37.5t21.5 126.5v28v553h-148z" />
<glyph unicode="&#xfb02;" horiz-adv-x="1269" d="M61 782v56h152v133q18 406 414 405q82 0 178 -26l252 26v-1132q0 -14 -1 -47t0 -43.5t3 -33t7 -29.5t15.5 -20.5t25.5 -17.5t36.5 -9t52.5 -7v-41q-31 0 -108.5 3t-118.5 5q-39 0 -115 -4t-115 -4v41q27 2 46.5 4t34 9t24.5 10t17 17.5t11.5 19.5t6.5 26.5t2 28t1 37 t1 40.5v815q0 152 -46 218.5t-194 66.5q-158 0 -207 -84t-49 -256v-151h262v-56h-262v-538v-55q0 -26 1 -46t5 -36.5t13.5 -28.5t24.5 -20.5t39 -13.5t58 -7v-41q-37 0 -112.5 4t-112.5 4q-39 0 -116.5 -4t-116.5 -4v41q53 4 82.5 12t43 34t15.5 47.5t2 76.5v22v553h-152z " />
</font>
</defs>
</svg>
